<?xml version="1.0" encoding="utf-8"?>
<!-- Generator: Adobe Illustrator 25.2.1, SVG Export Plug-In . SVG Version: 6.00 Build 0)  -->
<!DOCTYPE svg PUBLIC "-//W3C//DTD SVG 1.1//EN" "http://www.w3.org/Graphics/SVG/1.1/DTD/svg11.dtd" [
	<!ENTITY ns_extend "http://ns.adobe.com/Extensibility/1.0/">
	<!ENTITY ns_ai "http://ns.adobe.com/AdobeIllustrator/10.0/">
	<!ENTITY ns_graphs "http://ns.adobe.com/Graphs/1.0/">
	<!ENTITY ns_vars "http://ns.adobe.com/Variables/1.0/">
	<!ENTITY ns_imrep "http://ns.adobe.com/ImageReplacement/1.0/">
	<!ENTITY ns_sfw "http://ns.adobe.com/SaveForWeb/1.0/">
	<!ENTITY ns_custom "http://ns.adobe.com/GenericCustomNamespace/1.0/">
	<!ENTITY ns_adobe_xpath "http://ns.adobe.com/XPath/1.0/">
]>
<svg version="1.1" id="Layer_1" xmlns:x="&ns_extend;" xmlns:i="&ns_ai;" xmlns:graph="&ns_graphs;"
	 xmlns="http://www.w3.org/2000/svg" xmlns:xlink="http://www.w3.org/1999/xlink" x="0px" y="0px" width="112px" height="26px"
	 viewBox="0 0 112 26" style="enable-background:new 0 0 112 26;" xml:space="preserve">
<metadata>
	<sfw  xmlns="&ns_sfw;">
		<slices></slices>
		<sliceSourceBounds  bottomLeftOrigin="true" height="25.111" width="112" x="0" y="0.42"></sliceSourceBounds>
	</sfw>
</metadata>
<g>
	<g>
		<path style="fill:#EF4F23;" d="M47,17.292h7.046v1.74h-2.462v6.436h-2.123v-6.436h-2.462L47,17.292L47,17.292z"/>
		<path style="fill:#EF4F23;" d="M57.28,25.468l2.721-8.176h2.925l2.71,8.176h-2.315l-0.491-1.604h-2.738l-0.485,1.604H57.28z
			 M62.333,22.239l-0.841-2.744h-0.068l-0.836,2.744H62.333z"/>
		<path style="fill:#EF4F23;" d="M70.153,17.292h3.477c1.829,0,3.026,1.039,3.026,2.767c0,1.129-0.519,1.926-1.401,2.343
			l1.671,3.066h-2.337l-1.451-2.721h-0.841v2.721h-2.145L70.153,17.292L70.153,17.292z M73.133,21.064
			c0.807,0,1.282-0.293,1.276-1.005c0.005-0.722-0.468-1.044-1.276-1.05h-0.836v2.055L73.133,21.064L73.133,21.064z"/>
		<path style="fill:#EF4F23;" d="M85.294,19.054c-1.141,0-1.807,0.853-1.807,2.315c0,1.468,0.621,2.331,1.795,2.337
			c1.016-0.006,1.547-0.485,1.559-1.243h-1.513v-1.536h3.591v1.118c0,2.224-1.524,3.535-3.659,3.535c-2.372,0-3.98-1.598-3.986-4.19
			c0.005-2.686,1.773-4.211,3.975-4.211c1.919,0,3.399,1.163,3.579,2.8h-2.179C86.502,19.393,86.011,19.054,85.294,19.054z"/>
		<path style="fill:#EF4F23;" d="M93.695,17.292h5.838v1.74H95.84v1.479h3.387v1.739H95.84v1.479h3.681v1.739h-5.827L93.695,17.292
			L93.695,17.292z"/>
		<path style="fill:#EF4F23;" d="M104.127,17.292h7.046v1.74h-2.462v6.436h-2.123v-6.436h-2.462L104.127,17.292L104.127,17.292z"/>
	</g>
	<path style="fill:#1F2353;" d="M33.242,1.443c-2.297-0.915-4.811-1.176-7.237-0.741c-2.037,0.349-3.987,1.219-5.591,2.527
		c-0.563,1.525-1.084,3.006-1.647,4.531c-0.39-0.392-0.823-0.784-1.344-1.089c-0.997,1.743-1.56,3.748-1.647,5.751
		c-0.087,2.352,0.477,4.705,1.647,6.753c1.56-0.349,3.163-0.697,4.724-1.002c-0.563,1.525-1.127,3.049-1.69,4.574
		c2.124,1.699,4.811,2.658,7.542,2.744c3.034,0.087,6.111-0.915,8.495-2.876c2.124-1.743,3.597-4.226,4.16-6.883
		c0.737-3.355,0.043-7.014-1.907-9.846C37.403,3.883,35.453,2.358,33.242,1.443z M35.365,17.083
		c-1.171,1.743-3.034,2.962-5.071,3.398c-2.341,0.522-4.854,0.13-6.848-1.219c-1.473-0.959-2.558-2.483-2.991-4.182
		c-0.39-1.351-0.39-2.832,0.043-4.182l0.043,0.044c-0.217-1.002-0.694-1.917-1.344-2.701c-0.13-0.174-0.26-0.305-0.39-0.479
		c1.56-0.305,3.12-0.653,4.681-0.959c1.604-1.133,3.597-1.612,5.504-1.525c1.95,0.087,3.901,0.828,5.33,2.179
		c1.3,1.176,2.081,2.876,2.254,4.618C36.752,13.816,36.319,15.646,35.365,17.083z"/>
	<path style="fill:#EF4F23;" d="M23.447,6.826c-1.56,0.305-3.12,0.653-4.681,0.959c0.13,0.13,0.26,0.305,0.39,0.479
		c0.607,0.784,1.084,1.699,1.344,2.701c0.347,1.351,0.347,2.788-0.043,4.139c0.303,1.176,0.91,2.222,1.733,3.093
		c-1.56,0.305-3.163,0.697-4.724,1.002c-1.473,1.002-3.251,1.525-4.984,1.481c-2.167,0-4.377-0.784-5.938-2.352
		c-1.257-1.263-2.037-3.006-2.167-4.792S4.81,9.92,5.894,8.482c1.3-1.699,3.251-2.788,5.33-3.093
		c2.124-0.305,4.421,0.087,6.241,1.307c0.477,0.305,0.91,0.697,1.344,1.089c0.563-1.525,1.084-3.006,1.647-4.531
		c-1.95-1.525-4.334-2.483-6.805-2.658c-2.341-0.218-4.767,0.218-6.891,1.307C4.464,3.036,2.558,4.952,1.387,7.217
		C0.563,8.829,0.087,10.659,0,12.489v0.959c0.043,2.309,0.78,4.661,2.081,6.578c1.344,2.004,3.337,3.616,5.591,4.488
		c2.514,1.002,5.33,1.219,7.974,0.566c1.733-0.435,3.38-1.219,4.811-2.352c0.563-1.525,1.171-3.049,1.69-4.574
		c0.39,0.392,0.823,0.784,1.257,1.089c1.257-2.179,1.821-4.749,1.604-7.275C24.921,10.137,24.357,8.394,23.447,6.826z"/>
	<g>
		<path style="fill:#1F2353;" d="M53.092,3.614c-1.904,0-2.974,1.449-2.974,3.903c0,2.576,1.099,3.893,2.955,3.902
			c1.392-0.009,2.264-0.748,2.463-1.97l3.657,0.038c-0.199,2.349-2.245,5.077-6.195,5.077c-3.761,0-6.583-2.5-6.592-7.047
			c0.01-4.566,2.908-7.048,6.592-7.048c3.42,0,5.892,1.913,6.195,5.286h-3.657C55.412,4.467,54.551,3.614,53.092,3.614z"/>
		<path style="fill:#1F2353;" d="M60.939,0.659h5.835c3.068,0,5.077,1.743,5.077,4.641c0,1.894-0.871,3.23-2.349,3.931l2.804,5.143
			h-3.921l-2.434-4.566h-1.412v4.566H60.94L60.939,0.659L60.939,0.659z M65.94,6.987c1.355,0,2.15-0.493,2.141-1.685
			c0.009-1.212-0.786-1.753-2.141-1.762h-1.401v3.448L65.94,6.987L65.94,6.987z"/>
		<path style="fill:#1F2353;" d="M80.036,14.564c-3.741,0-6.64-2.51-6.649-7.047c0.01-4.566,2.908-7.047,6.649-7.047
			c3.704,0,6.63,2.482,6.63,7.047S83.74,14.564,80.036,14.564z M80.036,11.419c1.875-0.009,2.926-1.383,2.917-3.902
			c0.009-2.529-1.043-3.903-2.917-3.903c-1.894,0-2.936,1.373-2.936,3.903C77.101,10.036,78.143,11.41,80.036,11.419z"/>
		<path style="fill:#1F2353;" d="M93.907,3.444c-1.184-0.009-1.733,0.464-1.743,1.099c-0.029,0.711,0.615,1.099,1.894,1.364
			l1.137,0.265c2.946,0.626,4.262,2.055,4.281,4.167c-0.019,2.69-2.084,4.196-5.55,4.205c-3.542-0.009-5.844-1.544-5.873-4.925H91.5
			c0.057,1.278,0.938,1.951,2.368,1.951c1.241,0,1.904-0.502,1.913-1.231c-0.009-0.663-0.578-1.051-2.103-1.383l-1.383-0.303
			c-2.415-0.53-3.893-1.724-3.883-3.846c-0.018-2.595,2.274-4.338,5.495-4.338c3.287,0,5.361,1.771,5.38,4.433H95.82
			C95.744,3.984,95.138,3.435,93.907,3.444z"/>
		<path style="fill:#1F2353;" d="M106.432,3.444c-1.184-0.009-1.733,0.464-1.743,1.099c-0.029,0.711,0.615,1.099,1.894,1.364
			l1.137,0.265c2.946,0.626,4.262,2.055,4.281,4.167c-0.019,2.69-2.084,4.196-5.55,4.205c-3.542-0.009-5.844-1.544-5.873-4.925
			h3.448c0.057,1.278,0.938,1.951,2.368,1.951c1.241,0,1.903-0.502,1.913-1.231c-0.009-0.663-0.578-1.051-2.103-1.383l-1.383-0.303
			c-2.415-0.53-3.893-1.724-3.883-3.846c-0.018-2.595,2.274-4.338,5.495-4.338c3.287,0,5.361,1.771,5.38,4.433h-3.467
			C108.269,3.984,107.663,3.435,106.432,3.444z"/>
	</g>
</g>
</svg>
