<?xml version="1.0" encoding="utf-8"?>
<!-- Generator: Adobe Illustrator 25.2.1, SVG Export Plug-In . SVG Version: 6.00 Build 0)  -->
<!DOCTYPE svg PUBLIC "-//W3C//DTD SVG 1.1//EN" "http://www.w3.org/Graphics/SVG/1.1/DTD/svg11.dtd" [
	<!ENTITY ns_extend "http://ns.adobe.com/Extensibility/1.0/">
	<!ENTITY ns_ai "http://ns.adobe.com/AdobeIllustrator/10.0/">
	<!ENTITY ns_graphs "http://ns.adobe.com/Graphs/1.0/">
	<!ENTITY ns_vars "http://ns.adobe.com/Variables/1.0/">
	<!ENTITY ns_imrep "http://ns.adobe.com/ImageReplacement/1.0/">
	<!ENTITY ns_sfw "http://ns.adobe.com/SaveForWeb/1.0/">
	<!ENTITY ns_custom "http://ns.adobe.com/GenericCustomNamespace/1.0/">
	<!ENTITY ns_adobe_xpath "http://ns.adobe.com/XPath/1.0/">
]>
<svg version="1.1" id="Layer_1" xmlns:x="&ns_extend;" xmlns:i="&ns_ai;" xmlns:graph="&ns_graphs;"
	 xmlns="http://www.w3.org/2000/svg" xmlns:xlink="http://www.w3.org/1999/xlink" x="0px" y="0px" width="61px" height="61px"
	 viewBox="0 0 61 61" style="enable-background:new 0 0 61 61;" xml:space="preserve">
<metadata>
	<sfw  xmlns="&ns_sfw;">
		<slices></slices>
		<sliceSourceBounds  bottomLeftOrigin="true" height="18.319" width="30" x="15.042" y="21.424"></sliceSourceBounds>
	</sfw>
</metadata>
<path style="fill:#1F2353;" d="M39.4,21.95c-1.683-0.67-3.525-0.862-5.304-0.543c-1.493,0.255-2.922,0.894-4.097,1.852
	c-0.413,1.117-0.794,2.203-1.207,3.32c-0.286-0.287-0.603-0.575-0.985-0.798c-0.73,1.277-1.143,2.745-1.207,4.214
	c-0.064,1.724,0.349,3.448,1.207,4.948c1.143-0.255,2.318-0.511,3.462-0.734c-0.413,1.117-0.826,2.235-1.239,3.352
	c1.556,1.245,3.525,1.947,5.526,2.011c2.223,0.064,4.478-0.67,6.225-2.107c1.556-1.277,2.636-3.097,3.049-5.044
	c0.54-2.458,0.032-5.14-1.397-7.215C42.449,23.738,41.02,22.621,39.4,21.95z M40.956,33.411c-0.857,1.277-2.223,2.171-3.716,2.49
	c-1.715,0.383-3.557,0.096-5.018-0.894c-1.08-0.702-1.874-1.82-2.191-3.065c-0.286-0.99-0.286-2.075,0.032-3.065l0.032,0.032
	c-0.159-0.734-0.508-1.405-0.984-1.979c-0.095-0.128-0.191-0.223-0.286-0.351c1.143-0.224,2.287-0.479,3.43-0.702
	c1.175-0.83,2.636-1.181,4.033-1.117c1.429,0.064,2.858,0.607,3.906,1.596c0.953,0.862,1.524,2.107,1.651,3.384
	C41.973,31.017,41.655,32.357,40.956,33.411z"/>
<path style="fill:#EF4F23;" d="M32.223,25.877c-1.143,0.224-2.287,0.479-3.43,0.702c0.095,0.096,0.191,0.223,0.286,0.351
	c0.445,0.575,0.794,1.245,0.984,1.979c0.254,0.99,0.254,2.043-0.032,3.033c0.222,0.862,0.667,1.628,1.27,2.267
	c-1.143,0.223-2.318,0.511-3.462,0.734c-1.08,0.734-2.382,1.117-3.652,1.085c-1.588,0-3.208-0.575-4.351-1.724
	c-0.921-0.926-1.493-2.203-1.588-3.512c-0.095-1.309,0.318-2.65,1.112-3.703c0.953-1.245,2.382-2.043,3.906-2.267
	c1.556-0.223,3.239,0.064,4.573,0.958c0.349,0.224,0.667,0.511,0.985,0.798c0.413-1.117,0.794-2.203,1.207-3.32
	c-1.429-1.117-3.176-1.82-4.986-1.947c-1.715-0.16-3.493,0.16-5.05,0.958c-1.683,0.83-3.08,2.235-3.938,3.895
	c-0.603,1.181-0.953,2.522-1.016,3.863v0.702c0.032,1.692,0.572,3.416,1.524,4.82c0.984,1.468,2.445,2.65,4.097,3.288
	c1.842,0.734,3.906,0.894,5.843,0.415c1.27-0.319,2.477-0.894,3.525-1.724c0.413-1.117,0.858-2.235,1.239-3.352
	c0.286,0.287,0.603,0.575,0.921,0.798c0.921-1.596,1.334-3.48,1.175-5.331C33.303,28.303,32.89,27.026,32.223,25.877z"/>
</svg>
