<svg width="256" height="92" viewBox="0 0 256 92" fill="none" xmlns="http://www.w3.org/2000/svg">
<rect width="20" height="92" rx="4" fill="#F5F5FA"/>
<rect y="72" width="20" height="20" rx="4" fill="#52CC8F"/>
<rect x="33.7143" width="20" height="92" rx="4" fill="#F5F5FA"/>
<rect x="33.7143" y="57" width="20" height="35" rx="4" fill="#52CC8F"/>
<rect x="67.4286" width="20" height="92" rx="4" fill="#F5F5FA"/>
<rect x="67.4286" y="32" width="20" height="60" rx="4" fill="#52CC8F"/>
<rect x="101.143" width="20" height="92" rx="4" fill="#F5F5FA"/>
<rect x="101.143" y="67" width="20" height="25" rx="4" fill="#52CC8F"/>
<rect x="134.857" width="20" height="92" rx="4" fill="#F5F5FA"/>
<rect x="134.857" y="57" width="20" height="35" rx="4" fill="#52CC8F"/>
<rect x="168.571" width="20" height="92" rx="4" fill="#F5F5FA"/>
<rect x="168.571" y="47" width="20" height="45" rx="4" fill="#52CC8F"/>
<rect x="202.286" width="20" height="92" rx="4" fill="#F5F5FA"/>
<rect x="202.286" y="32" width="20" height="60" rx="4" fill="#52CC8F"/>
<rect x="236" width="20" height="92" rx="4" fill="#F5F5FA"/>
<rect x="236" y="22" width="20" height="70" rx="4" fill="#52CC8F"/>
</svg>
