<svg width="456" height="248" viewBox="0 0 456 248" fill="none" xmlns="http://www.w3.org/2000/svg">
<g clip-path="url(#clip0_2876_2045)">
<path d="M56 29H96" stroke="#BCBDCC" stroke-dasharray="2 2"/>
<path d="M28 56L28 168" stroke="#BCBDCC" stroke-dasharray="2 2"/>
<rect width="56" height="56" rx="8" fill="#1F2353"/>
<g clip-path="url(#clip1_2876_2045)">
<path d="M28 22.8102C23.5996 22.8102 19.8616 22.079 18.5137 21.0624C18.4647 21.0242 18.4059 21.0005 18.3441 20.994C18.2822 20.9875 18.2198 20.9985 18.1639 21.0258C18.108 21.053 18.0609 21.0954 18.0279 21.1481C17.9949 21.2009 17.9774 21.2618 17.9773 21.324V25.1288C17.9773 26.5558 22.4646 27.7118 28 27.7118C33.5354 27.7118 38.0227 26.5549 38.0227 25.1288V21.324C38.0227 21.0471 37.7077 20.8963 37.4863 21.0624C36.1385 22.079 32.4005 22.8102 28 22.8102Z" fill="#BCBDCC"/>
<path d="M28 28.631C23.5996 28.631 19.8616 27.8998 18.5137 26.8832C18.4647 26.845 18.4059 26.8213 18.3441 26.8148C18.2822 26.8083 18.2198 26.8193 18.1639 26.8466C18.108 26.8738 18.0609 26.9162 18.0279 26.9689C17.9949 27.0217 17.9774 27.0826 17.9773 27.1448V30.9496C17.9773 32.3766 22.4646 33.5326 28 33.5326C33.5354 33.5326 38.0227 32.3757 38.0227 30.9496V27.1448C38.0227 26.8679 37.7077 26.7171 37.4863 26.8832C36.1385 27.8998 32.4005 28.631 28 28.631Z" fill="#BCBDCC"/>
<path d="M28 34.4518C23.5996 34.4518 19.8616 33.7206 18.5137 32.704C18.4647 32.6658 18.4059 32.6421 18.3441 32.6356C18.2822 32.6291 18.2198 32.6401 18.1639 32.6674C18.108 32.6946 18.0609 32.737 18.0279 32.7898C17.9949 32.8425 17.9774 32.9034 17.9773 32.9656V36.7704C17.9773 38.1974 22.4646 39.3534 28 39.3534C33.5354 39.3534 38.0227 38.1965 38.0227 36.7704V32.9656C38.0227 32.6887 37.7077 32.5379 37.4863 32.704C36.1385 33.7206 32.4005 34.4518 28 34.4518Z" fill="#BCBDCC"/>
<path d="M28 21.8134C33.5354 21.8134 38.0227 20.6565 38.0227 19.2295C38.0227 17.8024 33.5354 16.6455 28 16.6455C22.4646 16.6455 17.9773 17.8024 17.9773 19.2295C17.9773 20.6565 22.4646 21.8134 28 21.8134Z" fill="#A5A7BA"/>
<path d="M33.5603 26.0153C33.7922 26.0153 33.9803 25.8273 33.9803 25.5953C33.9803 25.3633 33.7922 25.1753 33.5603 25.1753C33.3283 25.1753 33.1403 25.3633 33.1403 25.5953C33.1403 25.8273 33.3283 26.0153 33.5603 26.0153Z" fill="#1F2353"/>
<path d="M35.2059 25.7394C35.4378 25.7394 35.6259 25.5514 35.6259 25.3194C35.6259 25.0875 35.4378 24.8994 35.2059 24.8994C34.9739 24.8994 34.7859 25.0875 34.7859 25.3194C34.7859 25.5514 34.9739 25.7394 35.2059 25.7394Z" fill="#1F2353"/>
</g>
<rect x="4" y="104" width="48" height="48" rx="8" fill="#D2D3DD"/>
<path d="M24.1399 122.679C24.2419 122.624 24.362 122.637 24.474 122.633C24.951 122.639 25.4269 122.629 25.9039 122.636C26.1709 122.622 26.3999 122.879 26.3809 123.141C26.3829 125.549 26.3749 127.958 26.3849 130.366C26.3679 130.643 26.6199 130.898 26.8999 130.867C28.2599 130.866 29.6199 130.868 30.9809 130.866C31.1499 130.86 31.3319 130.902 31.4469 131.035C31.5929 131.177 31.577 131.394 31.581 131.58C31.572 131.888 31.5909 132.196 31.5719 132.503C31.5679 132.568 31.551 132.631 31.5221 132.689C31.4932 132.747 31.4529 132.799 31.4037 132.841C31.3545 132.883 31.2973 132.915 31.2355 132.935C31.1737 132.955 31.1085 132.962 31.0439 132.956H25.8309C25.4169 132.962 25.0459 132.724 24.7799 132.423C24.4959 132.106 24.1149 131.854 23.9599 131.442C23.8309 131.147 23.8659 130.819 23.8639 130.506C23.8629 128.076 23.8649 125.647 23.8629 123.217C23.8459 123.002 23.9379 122.774 24.1399 122.679Z" fill="white"/>
<path d="M26.947 114.621C28.306 114.417 29.739 114.592 30.971 115.218C33.221 116.305 35.473 117.385 37.725 118.468C38.177 118.691 38.66 118.877 39.039 119.221C39.632 119.728 39.941 120.512 39.937 121.284C39.938 125.787 39.936 130.29 39.938 134.793C39.946 135.939 39.331 137.056 38.394 137.706C38.12 137.901 37.806 138.025 37.501 138.162L32.503 140.395C31.542 140.83 30.531 141.168 29.482 141.31C27.6146 141.574 25.7104 141.324 23.975 140.585C22.057 139.745 20.149 138.878 18.236 138.029C16.949 137.489 16.066 136.115 16.102 134.721C16.106 130.22 16.099 125.719 16.106 121.218C16.1123 120.714 16.2581 120.221 16.5273 119.794C16.7965 119.367 17.1785 119.023 17.631 118.8C20.17 117.575 22.713 116.359 25.251 115.131C25.7889 114.88 26.3601 114.709 26.947 114.621ZM24.14 122.679C23.938 122.773 23.846 123.002 23.862 123.216C23.864 125.646 23.862 128.075 23.863 130.505C23.866 130.818 23.831 131.146 23.959 131.441C24.114 131.853 24.496 132.105 24.779 132.422C25.044 132.724 25.416 132.961 25.83 132.955H31.043C31.1076 132.961 31.1727 132.954 31.2344 132.934C31.2961 132.914 31.3533 132.882 31.4025 132.84C31.4517 132.798 31.4919 132.746 31.5209 132.688C31.5498 132.63 31.5669 132.567 31.571 132.502C31.59 132.195 31.571 131.887 31.58 131.579C31.576 131.392 31.592 131.176 31.446 131.034C31.331 130.9 31.149 130.858 30.98 130.865C29.619 130.867 28.259 130.866 26.899 130.866C26.619 130.897 26.367 130.642 26.384 130.365C26.375 127.957 26.383 125.549 26.38 123.14C26.399 122.878 26.17 122.622 25.903 122.635C25.426 122.629 24.95 122.638 24.473 122.632C24.362 122.637 24.242 122.624 24.14 122.679ZM33.718 130.68C33.494 130.786 33.27 130.893 33.048 131.002C32.963 131.042 32.868 131.115 32.883 131.222C32.879 131.674 32.874 132.128 32.886 132.581C32.886 132.747 33.053 132.825 33.183 132.88C33.504 133.017 33.838 133.224 34.201 133.129C34.457 133.057 34.696 132.934 34.936 132.822C34.9954 132.797 35.0451 132.753 35.0782 132.697C35.1113 132.642 35.1259 132.577 35.12 132.513C35.12 132.078 35.129 131.643 35.116 131.209C35.114 131.03 34.904 130.992 34.782 130.919C34.447 130.784 34.091 130.477 33.718 130.68Z" fill="#019BFB"/>
<path d="M33.718 130.68C34.091 130.477 34.447 130.784 34.782 130.919C34.905 130.992 35.114 131.03 35.116 131.209C35.13 131.643 35.12 132.078 35.12 132.513C35.1258 132.577 35.1111 132.642 35.078 132.697C35.045 132.753 34.9953 132.796 34.936 132.822C34.695 132.933 34.456 133.056 34.201 133.129C33.837 133.225 33.503 133.017 33.183 132.88C33.052 132.826 32.886 132.747 32.886 132.581C32.875 132.129 32.88 131.675 32.883 131.222C32.868 131.115 32.963 131.042 33.048 131.002C33.27 130.893 33.494 130.786 33.718 130.68Z" fill="#FFCA00"/>
<rect x="4" y="168" width="48" height="48" rx="8" fill="#D2D3DD"/>
<path d="M38.3549 196.935C37.8402 196.936 37.3383 197.096 36.918 197.393C36.4977 197.69 36.1795 198.11 36.0069 198.595H33.3209V189.813H37.5779C37.9772 189.833 38.3535 190.006 38.629 190.296C38.9044 190.586 39.058 190.97 39.058 191.37C39.058 191.77 38.9044 192.155 38.629 192.444C38.3535 192.734 37.9772 192.907 37.5779 192.927H36.3989C36.1775 192.927 35.965 193.015 35.8082 193.171C35.6514 193.327 35.5632 193.54 35.5629 193.761C35.5627 193.983 35.6504 194.195 35.8068 194.352C35.9632 194.509 36.1755 194.597 36.3969 194.597H37.5779C38.434 194.596 39.2547 194.256 39.86 193.65C40.4654 193.045 40.8059 192.224 40.8069 191.368C40.8059 190.512 40.4654 189.691 39.86 189.086C39.2547 188.481 38.434 188.14 37.5779 188.139H36.0949V186.824C36.0934 185.565 35.5924 184.358 34.702 183.467C33.8115 182.577 32.6042 182.076 31.3449 182.074C30.1866 182.076 29.0688 182.501 28.2014 183.269C27.334 184.037 26.7767 185.095 26.6339 186.244C25.7492 185.453 24.604 185.015 23.4169 185.014C22.1312 185.016 20.8987 185.528 19.9895 186.437C19.0804 187.346 18.5688 188.578 18.5669 189.864V193.637H18.4619C17.5833 193.638 16.741 193.988 16.1198 194.609C15.4985 195.23 15.149 196.073 15.1479 196.951C15.1487 197.83 15.4982 198.672 16.1195 199.294C16.7408 199.915 17.5833 200.264 18.4619 200.265H23.4159C23.6377 200.265 23.8503 200.177 24.0071 200.02C24.1639 199.864 24.2519 199.651 24.2519 199.429V192.096C24.2521 191.986 24.2307 191.878 24.1888 191.776C24.147 191.674 24.0855 191.582 24.008 191.504C23.9305 191.426 23.8384 191.365 23.7369 191.322C23.6355 191.28 23.5268 191.258 23.4169 191.258C23.3071 191.258 23.1983 191.279 23.0967 191.321C22.9952 191.363 22.9028 191.425 22.825 191.502C22.7472 191.58 22.6854 191.672 22.6432 191.773C22.601 191.875 22.5791 191.983 22.5789 192.093V198.593H18.4609C18.0256 198.593 17.6083 198.42 17.3005 198.112C16.9926 197.804 16.8195 197.387 16.8189 196.951C16.8195 196.516 16.9926 196.099 17.3005 195.791C17.6083 195.483 18.0256 195.31 18.4609 195.309H19.4019C19.6237 195.309 19.8363 195.221 19.9931 195.064C20.1499 194.908 20.2379 194.695 20.2379 194.473V189.864C20.2387 189.022 20.5737 188.214 21.1693 187.619C21.765 187.023 22.5726 186.688 23.4149 186.687C24.2573 186.688 25.0649 187.023 25.6605 187.619C26.2562 188.214 26.5912 189.022 26.5919 189.864V195.107C26.5918 195.217 26.6132 195.326 26.655 195.427C26.6969 195.529 26.7584 195.621 26.8359 195.699C26.9134 195.777 27.0055 195.839 27.1069 195.881C27.2084 195.923 27.3171 195.945 27.4269 195.945C27.5368 195.945 27.6456 195.924 27.7472 195.882C27.8487 195.84 27.9411 195.779 28.0189 195.701C28.0967 195.624 28.1585 195.532 28.2007 195.43C28.2429 195.329 28.2648 195.22 28.2649 195.11V189.864C28.2649 189.651 28.2469 189.441 28.2199 189.235C28.2493 189.152 28.2646 189.064 28.2649 188.975V186.824C28.2655 186.008 28.5899 185.225 29.1671 184.648C29.7442 184.071 30.5268 183.747 31.3429 183.746C32.1591 183.747 32.9417 184.071 33.5188 184.648C34.096 185.225 34.4204 186.008 34.4209 186.824V188.139H32.483C32.2612 188.139 32.0486 188.227 31.8918 188.384C31.735 188.541 31.6469 188.753 31.6469 188.975V199.43C31.6469 199.892 32.021 200.266 32.483 200.266H36.0049C36.1776 200.751 36.4959 201.171 36.9161 201.468C37.3364 201.765 37.8382 201.925 38.3529 201.926C39.0148 201.926 39.6496 201.664 40.1178 201.196C40.586 200.728 40.8492 200.094 40.8494 199.432C40.8497 198.77 40.5871 198.135 40.1192 197.667C39.6514 197.199 39.0168 196.935 38.3549 196.935ZM38.3549 200.255C38.2467 200.26 38.1385 200.244 38.0366 200.207C37.9347 200.17 37.841 200.113 37.761 200.04C37.6809 199.967 37.616 199.879 37.5701 199.781C37.5241 199.683 37.4979 199.576 37.4929 199.468C37.488 199.36 37.5045 199.252 37.5414 199.15C37.5782 199.048 37.6348 198.954 37.7079 198.874C37.781 198.794 37.8691 198.729 37.9673 198.683C38.0654 198.637 38.1717 198.611 38.2799 198.606C38.4986 198.596 38.7123 198.674 38.8739 198.821C39.0356 198.969 39.132 199.175 39.1419 199.393C39.1519 199.612 39.0746 199.826 38.927 199.987C38.7794 200.149 38.5736 200.245 38.3549 200.255Z" fill="#FC6D43"/>
<rect x="96" width="360" height="56" rx="8" fill="white"/>
<rect x="120" y="16" width="24" height="24" rx="4" fill="#EF552B"/>
<g clip-path="url(#clip2_2876_2045)">
<path opacity="0.4" d="M139.392 33.3281H124.608C124.354 33.3273 124.11 33.2259 123.93 33.046C123.75 32.8662 123.649 32.6225 123.648 32.3681V23.2481C123.648 22.7201 124.08 22.2881 124.608 22.2881H139.392C139.92 22.2881 140.352 22.7201 140.352 23.2481V32.3681C140.352 32.8961 139.92 33.3281 139.392 33.3281Z" fill="#1F2353"/>
<path d="M139.344 33.1841H124.656C124.176 33.1841 123.792 32.8001 123.792 32.3201V23.2961C123.792 22.8161 124.176 22.4321 124.656 22.4321H139.392C139.872 22.4321 140.256 22.8161 140.256 23.2961V32.3201C140.208 32.8001 139.824 33.1841 139.344 33.1841Z" fill="white"/>
<path opacity="0.4" d="M139.872 34.2881H124.128C123.84 34.2881 123.648 34.0961 123.648 33.8081V33.5681C123.648 33.4241 123.744 33.3281 123.888 33.3281H140.112C140.256 33.3281 140.352 33.4241 140.352 33.5681V33.8081C140.352 34.0481 140.16 34.2881 139.872 34.2881Z" fill="#1F2353"/>
<path opacity="0.1" d="M137.712 31.1682H126.288C126.144 31.1682 126.048 31.0722 126.048 30.9282V24.6882C126.048 24.5442 126.144 24.4482 126.288 24.4482H137.76C137.904 24.4482 138 24.5442 138 24.6882V30.9762C137.952 31.0722 137.856 31.1682 137.712 31.1682Z" fill="#1F2353"/>
<path opacity="0.1" d="M126.048 25.936H137.952" stroke="#1F2353" stroke-width="0.2" stroke-miterlimit="10"/>
<path opacity="0.1" d="M137.28 25.4561H126.72C126.624 25.4561 126.576 25.3601 126.576 25.3121V25.1201C126.576 25.0241 126.672 24.9761 126.72 24.9761H137.28C137.376 24.9761 137.424 25.0721 137.424 25.1201V25.3121C137.424 25.3601 137.376 25.4561 137.28 25.4561ZM130.128 27.0401H126.72C126.624 27.0401 126.576 26.9441 126.576 26.8961V26.7041C126.576 26.6081 126.672 26.5601 126.72 26.5601H130.128C130.224 26.5601 130.272 26.6561 130.272 26.7041V26.8961C130.272 26.9921 130.224 27.0401 130.128 27.0401ZM133.152 27.9521H126.72C126.624 27.9521 126.576 27.8561 126.576 27.8081V27.6161C126.576 27.5201 126.672 27.4721 126.72 27.4721H133.152C133.248 27.4721 133.296 27.5681 133.296 27.6161V27.8081C133.344 27.8561 133.248 27.9521 133.152 27.9521ZM137.328 27.0401H137.136C137.04 27.0401 136.992 26.9441 136.992 26.8961V26.7041C136.992 26.6081 137.088 26.5601 137.136 26.5601H137.328C137.424 26.5601 137.472 26.6561 137.472 26.7041V26.8961C137.472 26.9921 137.424 27.0401 137.328 27.0401ZM137.328 27.9521H137.136C137.04 27.9521 136.992 27.8561 136.992 27.8081V27.6161C136.992 27.5201 137.088 27.4721 137.136 27.4721H137.328C137.424 27.4721 137.472 27.5681 137.472 27.6161V27.8081C137.472 27.8561 137.424 27.9521 137.328 27.9521ZM137.328 28.8641H137.136C137.04 28.8641 136.992 28.7681 136.992 28.7201V28.4801C136.992 28.3841 137.088 28.3361 137.136 28.3361H137.328C137.424 28.3361 137.472 28.4321 137.472 28.4801V28.6721C137.472 28.7681 137.424 28.8641 137.328 28.8641ZM137.328 29.7281H137.136C137.04 29.7281 136.992 29.6321 136.992 29.5841V29.3921C136.992 29.2961 137.088 29.2481 137.136 29.2481H137.328C137.424 29.2481 137.472 29.3441 137.472 29.3921V29.5841C137.472 29.6801 137.424 29.7281 137.328 29.7281ZM137.328 30.6401H137.136C137.04 30.6401 136.992 30.5441 136.992 30.4961V30.3041C136.992 30.2081 137.088 30.1601 137.136 30.1601H137.328C137.424 30.1601 137.472 30.2561 137.472 30.3041V30.4961C137.472 30.5441 137.424 30.6401 137.328 30.6401ZM131.28 28.8641H126.72C126.624 28.8641 126.576 28.7681 126.576 28.7201V28.4801C126.576 28.3841 126.672 28.3361 126.72 28.3361H131.28C131.376 28.3361 131.424 28.4321 131.424 28.4801V28.6721C131.472 28.7681 131.376 28.8641 131.28 28.8641ZM130.128 29.7281H126.72C126.624 29.7281 126.576 29.6321 126.576 29.5841V29.3921C126.576 29.2961 126.672 29.2481 126.72 29.2481H130.128C130.224 29.2481 130.272 29.3441 130.272 29.3921V29.5841C130.272 29.6801 130.224 29.7281 130.128 29.7281ZM133.152 30.6401H126.72C126.624 30.6401 126.576 30.5441 126.576 30.4961V30.3041C126.576 30.2081 126.672 30.1601 126.72 30.1601H133.152C133.248 30.1601 133.296 30.2561 133.296 30.3041V30.4961C133.344 30.5441 133.248 30.6401 133.152 30.6401Z" fill="#1F2353"/>
<path d="M132.336 29.152C134.483 29.152 136.224 27.4114 136.224 25.264C136.224 23.1166 134.483 21.376 132.336 21.376C130.189 21.376 128.448 23.1166 128.448 25.264C128.448 27.4114 130.189 29.152 132.336 29.152Z" fill="white"/>
<path d="M135.006 28.3862L134.655 28.7132L139.66 34.0874L140.011 33.7604L135.006 28.3862Z" fill="#A5A7B9"/>
<path d="M139.152 34.1922L135.744 30.5442C135.648 30.4482 135.648 30.2562 135.744 30.1602L136.368 29.5842C136.464 29.4882 136.656 29.4882 136.752 29.5842L140.16 33.2322C140.256 33.3282 140.256 33.5202 140.16 33.6162L139.536 34.1922C139.392 34.2882 139.248 34.2882 139.152 34.1922Z" fill="#2E82FF"/>
<path d="M132.336 29.632C129.936 29.632 127.968 27.664 127.968 25.264C127.968 22.864 129.936 20.896 132.336 20.896C134.736 20.896 136.704 22.864 136.704 25.264C136.704 27.664 134.736 29.632 132.336 29.632ZM132.336 21.376C130.176 21.376 128.448 23.104 128.448 25.264C128.448 27.424 130.176 29.152 132.336 29.152C134.496 29.152 136.224 27.424 136.224 25.264C136.224 23.104 134.448 21.376 132.336 21.376Z" fill="#1F2353"/>
<path d="M132.336 29.1521C133.68 29.1521 134.88 28.4321 135.6 27.3761H129.072C129.744 28.4321 130.944 29.1521 132.336 29.1521ZM136.08 24.4001C135.936 23.8241 135.696 23.3441 135.36 22.9121H129.216C128.88 23.3441 128.64 23.8721 128.496 24.4001H136.08ZM129.024 27.2801H135.648C135.888 26.8961 136.08 26.4161 136.176 25.9361H128.496C128.592 26.4161 128.736 26.8961 129.024 27.2801Z" fill="#E9E9EE"/>
<path d="M129.072 27.3759H135.6C135.6 27.3279 135.648 27.3279 135.648 27.2799H129.024C129.024 27.3279 129.024 27.3279 129.072 27.3759ZM128.448 25.2639C128.448 25.5039 128.448 25.6959 128.496 25.9359H136.128C136.176 25.6959 136.176 25.5039 136.176 25.2639C136.176 24.9759 136.128 24.6879 136.08 24.3999H128.544C128.448 24.6879 128.448 24.9759 128.448 25.2639Z" fill="#D5D5DE"/>
</g>
<path d="M165.812 23.1523H161.031V24.0664H164.623C164.406 25.7246 162.906 27.0312 160.48 27.7109L160.938 28.5781C163.979 27.7168 165.812 25.8242 165.812 23.1523ZM162.273 32.8555H169.141V28.8828H162.273V32.8555ZM163.363 31.9648V29.7734H168.039V31.9648H163.363ZM165.859 26.0586H168.027V28.4492H169.141V22.5078H168.027V25.1328H165.859V26.0586ZM173.969 24.4766V23.1289H172.891V24.4766C172.891 25.666 172.129 27.0195 170.711 27.6406L171.32 28.4961C172.334 28.0566 173.049 27.2129 173.436 26.2285C173.811 27.1133 174.496 27.8398 175.457 28.2266L176.055 27.3711C174.695 26.8379 173.969 25.6602 173.969 24.4766ZM172.574 30.3008H178.609V32.9961H179.711V29.3984H172.574V30.3008ZM176.395 28.7891H177.426V26.1055H178.656V28.8477H179.711V22.5078H178.656V25.1797H177.426V22.6836H176.395V28.7891ZM192.754 22.4961H191.641V33.0195H192.754V22.4961ZM184.422 26.9609C184.422 29.2285 185.553 30.6582 187.141 30.6523C188.699 30.6582 189.848 29.2285 189.848 26.9609C189.848 24.7168 188.699 23.2871 187.141 23.2812C185.553 23.2871 184.422 24.7168 184.422 26.9609ZM185.5 26.9609C185.494 25.3145 186.162 24.2832 187.141 24.2773C188.102 24.2832 188.77 25.3145 188.77 26.9609C188.77 28.6309 188.102 29.6562 187.141 29.6562C186.162 29.6562 185.494 28.6309 185.5 26.9609ZM199.434 23.1289H194.852V24.0195H198.32V25.3438H194.863V28.543H195.625C197.717 28.5371 198.795 28.502 200.078 28.2852L199.973 27.3828C198.789 27.5996 197.793 27.6406 195.965 27.6406V26.1875H199.434V23.1289ZM196.059 30.3945H202.07V33.0078H203.184V29.4922H196.059V30.3945ZM200.102 27.1133H202.07V28.9648H203.184V22.5078H202.07V24.0312H200.102V24.9219H202.07V26.2227H200.102V27.1133Z" fill="#636587"/>
<rect x="96" y="64" width="360" height="56" rx="8" fill="white"/>
<rect x="120" y="80" width="24" height="24" rx="4" fill="#1F2353"/>
<path d="M126.336 90.2721V100.208C126.336 100.352 126.528 100.448 126.624 100.352L127.008 99.9681C127.056 99.9201 127.2 99.9201 127.248 99.9681L127.824 100.544C127.872 100.592 128.016 100.592 128.064 100.544L128.64 99.9681C128.688 99.9201 128.832 99.9201 128.88 99.9681L129.456 100.544C129.504 100.592 129.648 100.592 129.696 100.544L130.272 99.9681C130.32 99.9201 130.464 99.9201 130.512 99.9681L131.088 100.544C131.136 100.592 131.28 100.592 131.328 100.544L131.904 99.9681C131.952 99.9201 132.096 99.9201 132.144 99.9681L132.72 100.544C132.768 100.592 132.912 100.592 132.96 100.544L133.536 99.9681C133.584 99.9201 133.728 99.9201 133.776 99.9681L134.352 100.544C134.4 100.592 134.544 100.592 134.592 100.544L135.168 99.9681C135.216 99.9201 135.36 99.9201 135.408 99.9681L135.984 100.544C136.032 100.592 136.176 100.592 136.224 100.544L136.8 99.9681C136.848 99.9201 136.992 99.9201 137.04 99.9681L137.424 100.352C137.52 100.448 137.712 100.4 137.712 100.208V90.2721C137.712 90.1761 137.616 90.0801 137.52 90.0801H126.528C126.432 90.0801 126.336 90.1761 126.336 90.2721Z" fill="white"/>
<path opacity="0.8" d="M128.784 96.2241C128.86 96.2241 128.935 96.2091 129.004 96.1802C129.074 96.1512 129.138 96.1087 129.191 96.0552C129.245 96.0017 129.287 95.9382 129.316 95.8683C129.345 95.7984 129.36 95.7234 129.36 95.6478C129.36 95.5721 129.345 95.4972 129.316 95.4273C129.287 95.3574 129.245 95.2939 129.191 95.2404C129.138 95.1869 129.074 95.1445 129.004 95.1156C128.934 95.0866 128.859 95.0718 128.784 95.0718C128.631 95.0718 128.484 95.1326 128.376 95.2406C128.268 95.3487 128.208 95.4953 128.208 95.6481C128.208 95.8009 128.268 95.9474 128.377 96.0554C128.485 96.1635 128.631 96.2241 128.784 96.2241ZM129.696 98.3361H127.872C127.68 98.3361 127.536 98.1441 127.536 97.9521L127.632 97.4241C127.728 96.8961 128.208 96.4641 128.736 96.4641C129.312 96.4641 129.792 96.8481 129.84 97.4241L129.936 97.9521C130.032 98.1441 129.888 98.3361 129.696 98.3361Z" fill="#1F2353"/>
<path opacity="0.3" d="M136.032 95.792H131.424C131.28 95.792 131.184 95.696 131.184 95.552C131.184 95.408 131.28 95.312 131.424 95.312H136.032C136.176 95.312 136.272 95.408 136.272 95.552C136.224 95.696 136.128 95.792 136.032 95.792ZM135.408 96.896H131.424C131.28 96.896 131.184 96.8 131.184 96.656C131.184 96.512 131.28 96.416 131.424 96.416H135.408C135.552 96.416 135.648 96.512 135.648 96.656C135.6 96.8 135.504 96.896 135.408 96.896Z" fill="#1F2353"/>
<path opacity="0.1" d="M137.664 92.7681H126.336V94.3521H137.664V92.7681Z" fill="#1F2353"/>
<path opacity="0.3" d="M136.032 98H131.424C131.28 98 131.184 97.904 131.184 97.76C131.184 97.616 131.28 97.52 131.424 97.52H136.032C136.176 97.52 136.272 97.616 136.272 97.76C136.224 97.904 136.128 98 136.032 98Z" fill="#1F2353"/>
<path d="M138.262 93.9681H125.738C125.579 93.9681 125.426 93.9048 125.314 93.7923C125.201 93.6798 125.138 93.5272 125.138 93.3681V85.8642C125.138 85.705 125.201 85.5524 125.314 85.4399C125.426 85.3274 125.579 85.2642 125.738 85.2642H138.262C138.421 85.2642 138.574 85.3274 138.686 85.4399C138.799 85.5524 138.862 85.705 138.862 85.8642V93.3681C138.862 93.5272 138.799 93.6798 138.686 93.7923C138.574 93.9048 138.421 93.9681 138.262 93.9681Z" fill="#FFC72E"/>
<path opacity="0.8" d="M125.138 90.6816H138.862V92.4153H125.138V90.6816Z" fill="white"/>
<path d="M128.92 87.5555H126.827C126.77 87.5555 126.716 87.533 126.675 87.493C126.635 87.4529 126.613 87.3986 126.613 87.3419V86.8454C126.613 86.7275 126.709 86.6318 126.827 86.6318H128.92C129.038 86.6318 129.133 86.7275 129.133 86.8454V87.3419C129.133 87.37 129.128 87.3978 129.117 87.4237C129.106 87.4497 129.091 87.4732 129.071 87.4931C129.051 87.5129 129.027 87.5286 129.001 87.5394C128.975 87.5501 128.948 87.5556 128.92 87.5555ZM130.161 88.3295H126.732C126.701 88.3295 126.67 88.317 126.648 88.2946C126.625 88.2722 126.613 88.2418 126.613 88.2101V88.0667C126.613 88.0007 126.666 87.9473 126.732 87.9473H130.16C130.226 87.9473 130.28 88.0007 130.28 88.0667V88.2101C130.28 88.2258 130.277 88.2413 130.271 88.2558C130.265 88.2703 130.256 88.2835 130.245 88.2945C130.234 88.3056 130.221 88.3144 130.206 88.3204C130.192 88.3264 130.176 88.3295 130.161 88.3295ZM137.361 93.5408H133.932C133.901 93.5408 133.87 93.5283 133.848 93.5059C133.825 93.4835 133.813 93.4531 133.813 93.4214V93.047C133.813 92.981 133.866 92.9276 133.932 92.9276H137.36C137.426 92.9276 137.48 92.981 137.48 93.047V93.4214C137.48 93.4531 137.467 93.4834 137.445 93.5058C137.423 93.5281 137.392 93.5408 137.361 93.5408ZM129.627 88.9562H126.733C126.701 88.9562 126.671 88.9437 126.648 88.9213C126.626 88.8989 126.613 88.8685 126.613 88.8368V88.6934C126.613 88.6274 126.667 88.574 126.733 88.574H129.627C129.693 88.574 129.747 88.6274 129.747 88.6934V88.8368C129.747 88.9028 129.693 88.9562 129.627 88.9562Z" fill="#F2BA1F"/>
<path d="M137.292 88.1723H135.163C135.123 88.1723 135.085 88.1565 135.057 88.1284C135.029 88.1003 135.013 88.0621 135.013 88.0223V86.7818C135.013 86.7421 135.029 86.7039 135.057 86.6758C135.085 86.6476 135.123 86.6318 135.163 86.6318H137.292C137.332 86.6318 137.37 86.6476 137.398 86.6758C137.426 86.7039 137.442 86.7421 137.442 86.7818V88.0223C137.442 88.0621 137.426 88.1003 137.398 88.1284C137.37 88.1565 137.332 88.1723 137.292 88.1723Z" fill="white"/>
<path d="M135.697 87.5773L135.705 87.4585L135.606 87.5245L135.566 87.4549L135.672 87.4024L135.566 87.349L135.606 87.2791L135.705 87.3451L135.697 87.2266H135.778L135.77 87.3451L135.869 87.2791L135.909 87.349L135.803 87.4024L135.909 87.4549L135.869 87.5245L135.77 87.4585L135.778 87.5773H135.697ZM136.175 87.5773L136.183 87.4585L136.084 87.5245L136.043 87.4549L136.15 87.4024L136.043 87.349L136.084 87.2791L136.183 87.3451L136.175 87.2266H136.256L136.248 87.3451L136.347 87.2791L136.387 87.349L136.28 87.4024L136.387 87.4549L136.347 87.5245L136.248 87.4585L136.256 87.5773H136.175ZM136.652 87.5773L136.66 87.4585L136.561 87.5245L136.521 87.4549L136.628 87.4024L136.521 87.349L136.561 87.2791L136.66 87.3451L136.652 87.2266H136.733L136.725 87.3451L136.824 87.2791L136.865 87.349L136.758 87.4024L136.865 87.4549L136.824 87.5245L136.725 87.4585L136.733 87.5773H136.652Z" fill="#1F2353"/>
<path d="M169.141 86.4961H168.027V87.9492H165.748C165.807 87.6387 165.836 87.3164 165.836 86.9766H161.102V87.8906H164.611C164.43 89.4316 163.07 90.6035 160.551 91.1602L160.938 92.0742C163.258 91.5352 164.846 90.457 165.496 88.8281H168.027V89.9648H165.367V90.832H168.027V91.8398H169.141V86.4961ZM162.273 93.1641H168.027V94.1016H162.297V96.8906H169.457V96H163.398V94.9453H169.141V92.2852H162.273V93.1641ZM179.77 86.4961H178.703V96.9961H179.77V86.4961ZM170.605 94.1016L171.285 94.9336C172.311 94.2949 173.025 93.123 173.4 91.752C173.77 93.0176 174.455 94.0898 175.457 94.6875L176.125 93.8672C174.648 93.0176 173.922 91.2188 173.922 89.4258V88.582H175.727V87.6797H170.922V88.582H172.855V89.4258C172.85 91.2949 172.094 93.2051 170.605 94.1016ZM174.953 91.125H176.582V96.4688H177.637V86.7188H176.582V90.2109H174.953V91.125ZM192.754 86.4961H191.641V97.0195H192.754V86.4961ZM184.422 90.9609C184.422 93.2285 185.553 94.6582 187.141 94.6523C188.699 94.6582 189.848 93.2285 189.848 90.9609C189.848 88.7168 188.699 87.2871 187.141 87.2812C185.553 87.2871 184.422 88.7168 184.422 90.9609ZM185.5 90.9609C185.494 89.3145 186.162 88.2832 187.141 88.2773C188.102 88.2832 188.77 89.3145 188.77 90.9609C188.77 92.6309 188.102 93.6562 187.141 93.6562C186.162 93.6562 185.494 92.6309 185.5 90.9609ZM199.434 87.1289H194.852V88.0195H198.32V89.3438H194.863V92.543H195.625C197.717 92.5371 198.795 92.502 200.078 92.2852L199.973 91.3828C198.789 91.5996 197.793 91.6406 195.965 91.6406V90.1875H199.434V87.1289ZM196.059 94.3945H202.07V97.0078H203.184V93.4922H196.059V94.3945ZM200.102 91.1133H202.07V92.9648H203.184V86.5078H202.07V88.0312H200.102V88.9219H202.07V90.2227H200.102V91.1133Z" fill="#636587"/>
<g opacity="0.6">
<rect x="96" y="128" width="360" height="56" rx="8" fill="white"/>
<rect x="120" y="144" width="24" height="24" rx="4" fill="#FFC833"/>
<path d="M132 163.06C136.836 163.06 140.756 162.075 140.756 160.861C140.756 159.647 136.836 158.662 132 158.662C127.164 158.662 123.244 159.647 123.244 160.861C123.244 162.075 127.164 163.06 132 163.06Z" fill="#52CC8F"/>
<path opacity="0.6" d="M132.41 159.315C131.729 159.315 131.156 159.171 131.156 159V158.669C130.537 158.684 129.938 158.715 129.364 158.76V159C129.364 159.423 130.726 159.765 132.41 159.765H138.752C139.074 159.765 139.397 159.801 139.647 159.855L139.91 159.92C139.486 159.695 138.921 159.49 138.232 159.315H132.41ZM126.103 160.763L123.699 160.159C123.473 160.329 123.329 160.507 123.274 160.691L124.813 161.078C125.315 161.204 125.315 161.402 124.813 161.528L123.976 161.738C124.228 161.883 124.542 162.018 124.905 162.144L126.103 161.843C127.286 161.546 127.286 161.06 126.103 160.763Z" fill="white"/>
<path opacity="0.1" d="M131.514 160.308C131.669 160.3 131.824 160.296 131.98 160.295C132.477 160.295 132.933 160.337 133.305 160.405V158.686C132.87 158.669 132.434 158.66 131.998 158.659C131.834 158.659 131.675 158.663 131.514 158.665V160.308ZM130.428 161.273C129.995 161.169 129.722 161.024 129.722 160.863C129.722 160.853 129.732 160.845 129.733 160.836H123.246C123.245 160.843 123.241 160.851 123.241 160.858C123.241 161.005 123.301 161.147 123.409 161.286H129.901C130.077 161.285 130.252 161.28 130.428 161.273Z" fill="white"/>
<path d="M134.654 161.187C134.844 161.089 134.954 160.979 134.954 160.862C134.954 160.45 133.622 160.116 131.98 160.116C131.498 160.116 131.045 160.145 130.642 160.196L126.442 159.158C125.978 159.254 125.556 159.362 125.179 159.48L129.354 160.512C129.132 160.616 129.006 160.735 129.006 160.862C129.006 161.275 130.337 161.609 131.98 161.609C132.461 161.611 132.941 161.579 133.418 161.516L136.745 162.338C136.996 162.401 137.139 162.473 137.139 162.563C137.139 162.592 137.12 162.618 137.093 162.644C137.688 162.536 138.231 162.412 138.702 162.271C138.546 162.175 138.31 162.088 137.999 162.014L134.654 161.187ZM131.98 161.429C130.733 161.429 129.722 161.175 129.722 160.862C129.722 160.549 130.733 160.295 131.98 160.295C133.226 160.295 134.237 160.549 134.237 160.862C134.237 161.175 133.226 161.429 131.98 161.429Z" fill="white"/>
<path opacity="0.1" d="M140.565 160.403H139.146C138.071 160.403 137.139 160.556 136.745 160.808C136.351 161.06 136.566 161.33 137.318 161.519C137.641 161.6 137.641 161.726 137.318 161.807L132.324 163.053C133.513 163.042 134.639 162.972 135.661 162.853L138.537 162.131C139.54 161.879 139.54 161.456 138.537 161.204C138.178 161.114 138.322 161.006 138.357 160.979C138.393 160.952 138.608 160.853 139.11 160.853H140.753C140.752 160.699 140.686 160.549 140.565 160.403Z" fill="white"/>
<path d="M129.006 162.383H128.97C128.146 162.383 127.394 162.464 126.82 162.608L126.774 162.619C127.018 162.665 127.271 162.708 127.533 162.747C127.567 162.739 127.601 162.732 127.636 162.725L127.745 162.761L127.695 162.771C127.931 162.805 128.175 162.836 128.424 162.864C128.589 162.844 128.766 162.833 128.97 162.833C129.329 162.833 129.615 162.869 129.866 162.931L130.15 163.006C130.637 163.032 131.139 163.047 131.652 163.052L131.677 163.046L131.703 163.053C131.802 163.053 131.898 163.056 131.998 163.056C132.263 163.056 132.523 163.052 132.782 163.046L131.192 162.616C130.618 162.464 129.866 162.383 129.006 162.383ZM128.032 162.714L127.946 162.674C128.179 162.643 128.413 162.622 128.648 162.613L128.677 162.657C128.45 162.667 128.233 162.686 128.032 162.714ZM129.694 162.679C129.469 162.659 129.245 162.65 129.019 162.65V162.605C129.27 162.605 129.516 162.615 129.752 162.636L129.694 162.679ZM130.547 162.82L130.493 162.806C130.333 162.766 130.171 162.735 130.007 162.714L130.093 162.674C130.287 162.701 130.465 162.735 130.621 162.775L130.675 162.789L130.547 162.82ZM131.298 163.013L130.797 162.885L130.925 162.853L131.426 162.982L131.298 163.013Z" fill="white"/>
<path d="M133.76 161.312L134.269 161.439L134.395 161.407L133.886 161.28L133.76 161.312ZM130.093 162.674L130.007 162.713C130.17 162.735 130.333 162.766 130.493 162.806L130.547 162.82L130.675 162.788L130.621 162.775C130.447 162.731 130.271 162.697 130.093 162.674ZM130.797 162.884L131.298 163.013L131.426 162.982L130.925 162.853L130.797 162.884ZM127.945 162.674L128.031 162.713C128.246 162.684 128.461 162.666 128.677 162.657L128.647 162.613C128.413 162.622 128.178 162.642 127.945 162.674ZM129.019 162.65C129.25 162.65 129.476 162.66 129.694 162.679L129.752 162.636C129.509 162.615 129.264 162.605 129.019 162.605V162.65ZM134.524 161.502L135.033 161.629L135.159 161.597L134.65 161.47L134.524 161.502ZM137.543 162.265C137.675 162.312 137.774 162.364 137.837 162.42L138.009 162.407C137.941 162.347 137.833 162.29 137.689 162.239L137.543 162.265ZM136.815 162.072L137.311 162.195L137.324 162.199L137.387 162.183L137.441 162.164L136.941 162.04L136.815 162.072ZM135.287 161.692L135.797 161.819L135.923 161.787L135.413 161.66L135.287 161.692ZM136.051 161.882L136.561 162.009L136.687 161.977L136.177 161.85L136.051 161.882ZM131.676 163.046L131.651 163.052L131.702 163.053L131.676 163.046ZM127.745 162.761L127.635 162.725C127.601 162.732 127.567 162.739 127.533 162.747C127.587 162.755 127.64 162.764 127.695 162.772C127.711 162.768 127.728 162.764 127.745 162.761Z" fill="#EF552B"/>
<path opacity="0.5" d="M140.028 159.828C140.977 159.365 140.199 158.769 138.298 158.487C136.4 158.202 133.531 158.4 131.879 158.946C131.259 159.153 130.952 159.374 130.952 159.579H130.952L130.952 159.581V159.582L131.536 160.828C131.639 160.944 132.377 160.986 132.946 160.912L138.301 160.239L138.306 160.238L138.312 160.237H138.312C139.07 160.141 139.672 160.003 140.028 159.828Z" fill="#1F2353"/>
<path d="M136.235 155.443H136.235C136.803 154.599 137.106 153.603 137.105 152.585C137.105 149.752 134.809 147.456 131.976 147.456C129.144 147.456 126.848 149.752 126.848 152.585C126.848 153.643 127.169 154.627 127.718 155.443H127.717L127.722 155.451L127.725 155.455L131.264 160.576C131.608 161.074 132.344 161.074 132.688 160.576L136.227 155.455L136.23 155.45L136.235 155.443Z" fill="#1F2353"/>
<path d="M131.976 155.085C133.357 155.085 134.477 153.966 134.477 152.585C134.477 151.204 133.357 150.084 131.976 150.084C130.595 150.084 129.476 151.204 129.476 152.585C129.476 153.966 130.595 155.085 131.976 155.085Z" fill="white"/>
<path d="M165.25 157.035C163.064 157.035 161.723 157.762 161.723 159.004C161.723 160.264 163.064 160.99 165.25 160.996C167.412 160.99 168.73 160.264 168.73 159.004C168.73 157.762 167.412 157.035 165.25 157.035ZM160.797 156.027H165.742V151.152H164.641V152.664H161.887V151.152H160.797V156.027ZM161.887 155.137V153.543H164.641V155.137H161.887ZM162.836 159.004C162.83 158.307 163.732 157.914 165.25 157.914C166.756 157.914 167.646 158.307 167.641 159.004C167.646 159.707 166.756 160.105 165.25 160.105C163.732 160.105 162.83 159.707 162.836 159.004ZM167.523 156.766H168.637V154.012H170.16V153.062H168.637V150.496H167.523V156.766ZM180.355 155.805H170.746V156.707H175.082V158.746H176.184V156.707H180.355V155.805ZM171.941 160.773H179.289V159.871H173.055V157.75H171.941V160.773ZM171.977 154.715H179.113V150.988H171.977V154.715ZM173.066 153.836V151.867H178.012V153.836H173.066ZM192.754 150.496H191.641V161.02H192.754V150.496ZM184.422 154.961C184.422 157.229 185.553 158.658 187.141 158.652C188.699 158.658 189.848 157.229 189.848 154.961C189.848 152.717 188.699 151.287 187.141 151.281C185.553 151.287 184.422 152.717 184.422 154.961ZM185.5 154.961C185.494 153.314 186.162 152.283 187.141 152.277C188.102 152.283 188.77 153.314 188.77 154.961C188.77 156.631 188.102 157.656 187.141 157.656C186.162 157.656 185.494 156.631 185.5 154.961ZM199.434 151.129H194.852V152.02H198.32V153.344H194.863V156.543H195.625C197.717 156.537 198.795 156.502 200.078 156.285L199.973 155.383C198.789 155.6 197.793 155.641 195.965 155.641V154.188H199.434V151.129ZM196.059 158.395H202.07V161.008H203.184V157.492H196.059V158.395ZM200.102 155.113H202.07V156.965H203.184V150.508H202.07V152.031H200.102V152.922H202.07V154.223H200.102V155.113Z" fill="#636587"/>
</g>
<g opacity="0.4">
<rect x="96" y="192" width="360" height="56" rx="8" fill="white"/>
<rect x="120" y="208" width="24" height="24" rx="4" fill="#1F2353"/>
<path d="M126.793 228.062V212.358C126.793 212.12 126.887 211.891 127.056 211.722C127.225 211.553 127.454 211.458 127.693 211.458H136.307C136.546 211.458 136.775 211.553 136.944 211.722C137.113 211.891 137.207 212.12 137.207 212.358V228.062C137.207 228.3 137.113 228.529 136.944 228.698C136.775 228.867 136.546 228.962 136.307 228.962H127.693C127.454 228.962 127.225 228.867 127.056 228.698C126.887 228.529 126.793 228.3 126.793 228.062Z" fill="#A5A7BA"/>
<path d="M127.447 227.783V212.638C127.447 212.478 127.51 212.326 127.622 212.213C127.735 212.101 127.888 212.038 128.047 212.038H135.953C136.113 212.038 136.265 212.101 136.378 212.213C136.49 212.326 136.553 212.478 136.553 212.638V227.783C136.553 227.942 136.49 228.095 136.378 228.207C136.265 228.32 136.113 228.383 135.953 228.383H128.047C127.888 228.383 127.735 228.32 127.622 228.207C127.51 228.095 127.447 227.942 127.447 227.783Z" fill="#636587"/>
<path d="M132.563 213.381H130.637C130.613 213.381 130.589 213.376 130.567 213.367C130.544 213.358 130.524 213.344 130.507 213.327C130.49 213.31 130.477 213.29 130.467 213.268C130.458 213.246 130.453 213.222 130.454 213.198V212.978C130.453 212.954 130.458 212.93 130.467 212.908C130.477 212.885 130.49 212.865 130.507 212.848C130.524 212.831 130.544 212.818 130.567 212.808C130.589 212.799 130.613 212.794 130.637 212.794H132.563C132.588 212.794 132.611 212.799 132.634 212.808C132.656 212.818 132.676 212.831 132.693 212.848C132.71 212.865 132.724 212.885 132.733 212.908C132.742 212.93 132.747 212.954 132.747 212.978V213.198C132.747 213.246 132.727 213.293 132.693 213.327C132.659 213.362 132.612 213.381 132.563 213.381ZM133.363 213.381H133.143C133.119 213.381 133.095 213.376 133.073 213.367C133.051 213.358 133.031 213.344 133.014 213.327C132.997 213.31 132.983 213.29 132.974 213.268C132.965 213.246 132.96 213.222 132.96 213.198V212.978C132.96 212.954 132.965 212.93 132.974 212.908C132.983 212.885 132.997 212.865 133.014 212.848C133.031 212.831 133.051 212.818 133.073 212.808C133.095 212.799 133.119 212.794 133.143 212.794H133.363C133.387 212.794 133.411 212.799 133.433 212.808C133.456 212.818 133.476 212.831 133.493 212.848C133.51 212.865 133.523 212.885 133.533 212.908C133.542 212.93 133.547 212.954 133.547 212.978V213.198C133.547 213.222 133.542 213.246 133.533 213.268C133.523 213.29 133.51 213.31 133.493 213.327C133.476 213.344 133.456 213.358 133.433 213.367C133.411 213.376 133.387 213.381 133.363 213.381ZM131.273 218.669H128.927C128.847 218.669 128.771 218.637 128.715 218.581C128.658 218.525 128.627 218.448 128.627 218.369V216.022C128.627 215.943 128.658 215.866 128.715 215.81C128.771 215.754 128.847 215.722 128.927 215.722H131.273C131.353 215.722 131.429 215.754 131.486 215.81C131.542 215.866 131.573 215.943 131.573 216.022V218.369C131.573 218.448 131.542 218.525 131.486 218.581C131.429 218.637 131.353 218.669 131.273 218.669Z" fill="#1F2353"/>
<path d="M135.073 218.669H132.727C132.647 218.669 132.571 218.637 132.515 218.581C132.458 218.525 132.427 218.448 132.427 218.369V216.022C132.427 215.943 132.458 215.866 132.515 215.81C132.571 215.754 132.647 215.722 132.727 215.722H135.073C135.153 215.722 135.229 215.754 135.285 215.81C135.342 215.866 135.373 215.943 135.373 216.022V218.369C135.373 218.448 135.342 218.525 135.285 218.581C135.229 218.637 135.153 218.669 135.073 218.669Z" fill="#FFC72E"/>
<path d="M131.273 222.386H128.927C128.847 222.386 128.771 222.354 128.715 222.298C128.658 222.242 128.627 222.166 128.627 222.086V219.739C128.627 219.66 128.658 219.584 128.715 219.527C128.771 219.471 128.847 219.439 128.927 219.439H131.273C131.353 219.439 131.429 219.471 131.486 219.527C131.542 219.584 131.573 219.66 131.573 219.739V222.086C131.573 222.166 131.542 222.242 131.486 222.298C131.429 222.354 131.353 222.386 131.273 222.386Z" fill="#EF552B"/>
<path d="M135.073 222.386H132.727C132.647 222.386 132.571 222.354 132.515 222.298C132.458 222.242 132.427 222.166 132.427 222.086V219.739C132.427 219.66 132.458 219.584 132.515 219.527C132.571 219.471 132.647 219.439 132.727 219.439H135.073C135.153 219.439 135.229 219.471 135.285 219.527C135.342 219.584 135.373 219.66 135.373 219.739V222.086C135.373 222.166 135.342 222.242 135.285 222.298C135.229 222.354 135.153 222.386 135.073 222.386Z" fill="#2E82FF"/>
<path d="M131.273 226.103H128.927C128.847 226.103 128.771 226.072 128.715 226.015C128.658 225.959 128.627 225.883 128.627 225.803V223.457C128.627 223.377 128.658 223.301 128.715 223.245C128.771 223.188 128.847 223.157 128.927 223.157H131.273C131.353 223.157 131.429 223.188 131.486 223.245C131.542 223.301 131.573 223.377 131.573 223.457V225.803C131.573 225.883 131.542 225.959 131.486 226.015C131.429 226.072 131.353 226.103 131.273 226.103Z" fill="#52CC8F"/>
<path d="M135.073 226.103H132.727C132.647 226.103 132.571 226.072 132.515 226.015C132.458 225.959 132.427 225.883 132.427 225.803V223.457C132.427 223.377 132.458 223.301 132.515 223.245C132.571 223.188 132.647 223.157 132.727 223.157H135.073C135.153 223.157 135.229 223.188 135.285 223.245C135.342 223.301 135.373 223.377 135.373 223.457V225.803C135.373 225.883 135.342 225.959 135.285 226.015C135.229 226.072 135.153 226.103 135.073 226.103Z" fill="#1F2353"/>
<path d="M140.7 219.713H135.78C135.541 219.713 135.312 219.618 135.144 219.449C134.975 219.281 134.88 219.052 134.88 218.813V211.313C134.88 211.074 134.975 210.845 135.144 210.677C135.312 210.508 135.541 210.413 135.78 210.413H140.7C140.939 210.413 141.168 210.508 141.336 210.677C141.505 210.845 141.6 211.074 141.6 211.313V218.813C141.6 219.052 141.505 219.281 141.336 219.449C141.168 219.618 140.939 219.713 140.7 219.713Z" fill="#F5F5FA"/>
<path d="M140.203 214.011H140.818C140.851 214.011 140.878 214.038 140.878 214.071V214.685C140.878 214.701 140.872 214.717 140.86 214.728C140.849 214.739 140.834 214.745 140.818 214.745H140.203C140.187 214.745 140.172 214.739 140.161 214.728C140.15 214.717 140.143 214.701 140.143 214.685V214.071C140.143 214.038 140.17 214.011 140.203 214.011ZM140.203 212.641H140.818C140.851 212.641 140.878 212.668 140.878 212.701V213.315C140.878 213.331 140.872 213.346 140.86 213.358C140.849 213.369 140.834 213.375 140.818 213.375H140.203C140.187 213.375 140.172 213.369 140.161 213.358C140.15 213.346 140.143 213.331 140.143 213.315V212.701C140.143 212.668 140.17 212.641 140.203 212.641ZM140.203 211.271H140.818C140.851 211.271 140.878 211.298 140.878 211.331V211.945C140.878 211.961 140.872 211.976 140.86 211.988C140.849 211.999 140.834 212.005 140.818 212.005H140.203C140.187 212.005 140.172 211.999 140.161 211.988C140.15 211.976 140.143 211.961 140.143 211.945V211.331C140.143 211.298 140.17 211.271 140.203 211.271ZM140.203 218.121H140.818C140.851 218.121 140.878 218.148 140.878 218.181V218.796C140.878 218.812 140.872 218.827 140.86 218.838C140.849 218.849 140.834 218.856 140.818 218.856H140.203C140.187 218.856 140.172 218.849 140.161 218.838C140.15 218.827 140.143 218.812 140.143 218.796V218.181C140.143 218.173 140.145 218.165 140.148 218.158C140.151 218.151 140.155 218.144 140.161 218.139C140.166 218.133 140.173 218.129 140.18 218.126C140.188 218.123 140.195 218.121 140.203 218.121ZM140.203 216.751H140.818C140.851 216.751 140.878 216.778 140.878 216.811V217.426C140.878 217.442 140.872 217.457 140.86 217.468C140.849 217.479 140.834 217.486 140.818 217.486H140.203C140.187 217.486 140.172 217.479 140.161 217.468C140.15 217.457 140.143 217.442 140.143 217.426V216.811C140.143 216.778 140.17 216.751 140.203 216.751ZM140.203 215.381H140.818C140.851 215.381 140.878 215.408 140.878 215.441V216.056C140.878 216.071 140.872 216.087 140.86 216.098C140.849 216.109 140.834 216.116 140.818 216.116H140.203C140.187 216.116 140.172 216.109 140.161 216.098C140.15 216.087 140.143 216.071 140.143 216.056V215.441C140.143 215.408 140.17 215.381 140.203 215.381Z" fill="#4C4F75"/>
<path d="M135.662 214.011H138.548C138.581 214.011 138.608 214.038 138.608 214.071V214.685C138.608 214.701 138.602 214.717 138.59 214.728C138.579 214.739 138.564 214.745 138.548 214.745H135.662C135.654 214.745 135.646 214.744 135.639 214.741C135.632 214.738 135.625 214.733 135.62 214.728C135.614 214.722 135.61 214.716 135.607 214.708C135.604 214.701 135.602 214.693 135.602 214.685V214.071C135.602 214.063 135.604 214.055 135.607 214.048C135.61 214.04 135.614 214.034 135.62 214.028C135.625 214.023 135.632 214.018 135.639 214.015C135.646 214.012 135.654 214.011 135.662 214.011ZM135.662 212.641H139.33C139.363 212.641 139.39 212.668 139.39 212.701V213.315C139.39 213.331 139.384 213.346 139.373 213.358C139.361 213.369 139.346 213.375 139.33 213.375H135.662C135.654 213.375 135.646 213.374 135.639 213.371C135.632 213.368 135.625 213.363 135.62 213.358C135.614 213.352 135.61 213.346 135.607 213.338C135.604 213.331 135.602 213.323 135.602 213.315V212.701C135.602 212.693 135.604 212.685 135.607 212.678C135.61 212.67 135.614 212.664 135.62 212.658C135.625 212.653 135.632 212.648 135.639 212.645C135.646 212.642 135.654 212.641 135.662 212.641ZM135.662 211.271H137.436C137.469 211.271 137.496 211.298 137.496 211.331V211.945C137.496 211.961 137.49 211.976 137.478 211.988C137.467 211.999 137.452 212.005 137.436 212.005H135.662C135.646 212.005 135.631 211.999 135.62 211.988C135.608 211.976 135.602 211.961 135.602 211.945V211.331C135.602 211.315 135.608 211.299 135.62 211.288C135.631 211.277 135.646 211.271 135.662 211.271ZM135.662 218.121H138.548C138.581 218.121 138.608 218.148 138.608 218.181V218.796C138.608 218.812 138.602 218.827 138.59 218.838C138.579 218.849 138.564 218.856 138.548 218.856H135.662C135.654 218.856 135.646 218.854 135.639 218.851C135.632 218.848 135.625 218.844 135.62 218.838C135.614 218.833 135.61 218.826 135.607 218.819C135.604 218.811 135.602 218.804 135.602 218.796V218.181C135.602 218.173 135.604 218.165 135.607 218.158C135.61 218.151 135.614 218.144 135.62 218.139C135.625 218.133 135.632 218.129 135.639 218.126C135.646 218.123 135.654 218.121 135.662 218.121ZM135.662 216.751H139.33C139.363 216.751 139.39 216.778 139.39 216.811V217.426C139.39 217.442 139.384 217.457 139.373 217.468C139.361 217.479 139.346 217.486 139.33 217.486H135.662C135.654 217.486 135.646 217.484 135.639 217.481C135.632 217.478 135.625 217.474 135.62 217.468C135.614 217.462 135.61 217.456 135.607 217.449C135.604 217.441 135.602 217.433 135.602 217.426V216.811C135.602 216.803 135.604 216.795 135.607 216.788C135.61 216.781 135.614 216.774 135.62 216.768C135.625 216.763 135.632 216.758 135.639 216.755C135.646 216.752 135.654 216.751 135.662 216.751ZM135.662 215.381H137.436C137.469 215.381 137.496 215.408 137.496 215.441V216.056C137.496 216.071 137.49 216.087 137.478 216.098C137.467 216.109 137.452 216.116 137.436 216.116H135.662C135.646 216.116 135.631 216.109 135.62 216.098C135.608 216.087 135.602 216.071 135.602 216.056V215.441C135.602 215.425 135.608 215.41 135.62 215.398C135.631 215.387 135.646 215.381 135.662 215.381Z" fill="#A5A7BA"/>
<path d="M162.883 215.082C161.471 215.07 160.475 216.055 160.48 217.473C160.475 218.879 161.471 219.869 162.883 219.863C164.289 219.869 165.297 218.879 165.297 217.473C165.297 216.055 164.289 215.07 162.883 215.082ZM161.477 217.473C161.471 216.576 162.068 215.979 162.883 215.984C163.691 215.979 164.277 216.576 164.289 217.473C164.277 218.352 163.691 218.943 162.883 218.949C162.068 218.943 161.471 218.352 161.477 217.473ZM162.332 224.867H169.34V220.672H168.25V221.82H163.434V220.672H162.332V224.867ZM163.434 223.965V222.723H168.25V223.965H163.434ZM166.023 220.145H167.055V217.766H168.285V220.215H169.34V214.508H168.285V216.84H167.055V214.695H166.023V220.145ZM182.441 214.496H181.328V216.301H179.113V217.203H181.328V219.898H182.441V214.496ZM173.652 219.055L174.25 219.945C175.492 219.518 176.389 218.639 176.846 217.508C177.309 218.51 178.182 219.301 179.336 219.699L179.922 218.832C178.34 218.328 177.379 217.086 177.379 215.75V214.836H176.277V215.75C176.271 217.227 175.293 218.533 173.652 219.055ZM175.574 221.27H181.34V222.16H175.598V224.867H182.805V223.977H176.688V223.004H182.441V220.391H175.574V221.27ZM192.754 214.496H191.641V224.996H192.754V214.496ZM184.211 222.125L184.832 222.98C186.051 222.43 187.006 221.264 187.48 219.857C187.967 221.182 188.928 222.277 190.141 222.805L190.75 221.949C189.115 221.258 188.014 219.547 188.008 217.871V217.18H190.363V216.289H188.008V214.707H186.906V216.289H184.527V217.18H186.918V217.871C186.912 219.629 185.834 221.398 184.211 222.125ZM206.055 214.496H204.941V225.02H206.055V214.496ZM197.723 218.961C197.723 221.229 198.854 222.658 200.441 222.652C202 222.658 203.148 221.229 203.148 218.961C203.148 216.717 202 215.287 200.441 215.281C198.854 215.287 197.723 216.717 197.723 218.961ZM198.801 218.961C198.795 217.314 199.463 216.283 200.441 216.277C201.402 216.283 202.07 217.314 202.07 218.961C202.07 220.631 201.402 221.656 200.441 221.656C199.463 221.656 198.795 220.631 198.801 218.961ZM212.734 215.129H208.152V216.02H211.621V217.344H208.164V220.543H208.926C211.018 220.537 212.096 220.502 213.379 220.285L213.273 219.383C212.09 219.6 211.094 219.641 209.266 219.641V218.188H212.734V215.129ZM209.359 222.395H215.371V225.008H216.484V221.492H209.359V222.395ZM213.402 219.113H215.371V220.965H216.484V214.508H215.371V216.031H213.402V216.922H215.371V218.223H213.402V219.113Z" fill="#636587"/>
</g>
</g>
<defs>
<clipPath id="clip0_2876_2045">
<rect width="456" height="248" fill="white"/>
</clipPath>
<clipPath id="clip1_2876_2045">
<rect width="21" height="22.9091" fill="white" transform="translate(17.5 16.5454)"/>
</clipPath>
<clipPath id="clip2_2876_2045">
<rect width="24" height="24" fill="white" transform="translate(120 16)"/>
</clipPath>
</defs>
</svg>
