<svg width="265" height="100" viewBox="0 0 265 100" fill="none" xmlns="http://www.w3.org/2000/svg">
<rect x="1" width="100" height="100" rx="50" fill="#F5F5FA"/>
<path d="M65.5897 49.7392C68.3918 49.7398 70.6634 47.4682 70.6639 44.6661V44.665C70.6645 41.8629 68.3929 39.5914 65.5908 39.5908H65.5897C62.7871 39.5908 60.5156 41.8624 60.5156 44.665C60.5156 47.4677 62.7871 49.7392 65.5897 49.7392ZM75.3792 62.445L74.4497 55.2887C74.218 53.506 72.8169 52.1282 71.0738 51.8781C70.7457 51.831 70.4111 51.8549 70.0852 51.9166L68.0659 52.2977C67.0309 52.492 65.9763 52.5608 64.925 52.5018C64.7859 52.4942 64.6469 52.5186 64.5188 52.5732C64.3907 52.6278 64.2768 52.711 64.1859 52.8166C64.0951 52.9222 64.0297 53.0472 63.9948 53.182C63.9599 53.3168 63.9564 53.4579 63.9846 53.5943C64.0128 53.7356 64.0366 53.8785 64.0555 54.0236L65.2216 63.001C65.3884 64.2894 65.2855 65.599 64.9206 66.8457C64.7485 67.4347 65.174 68.027 65.7873 68.027H70.4452C73.446 68.0275 75.7636 65.4052 75.3792 62.445ZM33.8312 49.7392C36.6333 49.7398 38.9049 47.4682 38.9054 44.6661V44.665C38.906 41.8629 36.6344 39.5914 33.8323 39.5908H33.8312C31.0291 39.5903 28.7576 41.8618 28.757 44.6639V44.665C28.7565 47.4671 31.0281 49.7387 33.8302 49.7392H33.8312ZM34.1994 63.001L35.366 54.0241C35.3849 53.879 35.4088 53.7361 35.4369 53.5948C35.4651 53.4584 35.4617 53.3174 35.4268 53.1825C35.3919 53.0477 35.3265 52.9227 35.2356 52.8171C35.1448 52.7116 35.0309 52.6283 34.9027 52.5737C34.7746 52.5191 34.6356 52.4947 34.4966 52.5023C33.445 52.5607 32.3902 52.4922 31.355 52.2982L29.3363 51.9171C29.0104 51.8554 28.6753 51.8316 28.3467 51.8792C26.604 52.1299 25.2035 53.5076 24.9724 55.2898L24.0418 62.445C23.6574 65.4052 25.975 68.0275 28.9757 68.0275H33.6336C34.2475 68.0275 34.6725 67.4353 34.5004 66.8463C34.135 65.5992 34.0325 64.2898 34.1994 63.001Z" fill="#D2D3DD"/>
<path d="M49.7104 47.4813C53.226 47.4813 56.0763 44.631 56.0763 41.1154C56.0763 37.5998 53.226 34.7495 49.7104 34.7495C46.1948 34.7495 43.3445 37.5998 43.3445 41.1154C43.3445 44.6316 46.1948 47.4813 49.7104 47.4813Z" fill="#F16641"/>
<path d="M61.9918 63.421L60.8257 54.4436C60.535 52.2062 58.7761 50.477 56.5885 50.1647C56.1776 50.1062 55.7586 50.1354 55.3509 50.2129L52.8179 50.6914C50.7647 51.0796 48.6569 51.0796 46.6036 50.6914L44.0706 50.2129C43.6629 50.1354 43.2439 50.1062 42.833 50.1647C40.6448 50.4776 38.8865 52.2067 38.5958 54.4436L37.4291 63.421C36.9468 67.1348 39.855 70.4246 43.6191 70.4246H55.8019C59.5665 70.4246 62.4742 67.1348 61.9918 63.421Z" fill="#BCBDCC"/>
<path d="M76.4295 73.2415L78.7958 70.8752C78.9073 70.7636 78.97 70.6122 78.97 70.4543C78.97 70.2965 78.9073 70.1451 78.7958 70.0334L68.3507 59.5878C68.2391 59.4762 68.0877 59.4136 67.9298 59.4136C67.772 59.4136 67.6206 59.4762 67.5089 59.5878L65.1426 61.9541C65.031 62.0658 64.9684 62.2172 64.9684 62.375C64.9684 62.5329 65.031 62.6843 65.1426 62.7959L75.5877 73.241C75.6992 73.3526 75.8506 73.4154 76.0085 73.4155C76.1663 73.4156 76.3177 73.353 76.4295 73.2415Z" fill="#8F91A9"/>
<path d="M48.8064 26.0076C39.4072 26.2832 31.8374 33.852 31.5618 43.2517C31.2716 53.1575 39.2789 61.4837 49.1886 61.5644C53.2993 61.6039 57.2956 60.2114 60.4917 57.626C60.606 57.5318 60.7512 57.4834 60.8991 57.4902C61.0471 57.497 61.1872 57.5585 61.2924 57.6628L64.2558 60.6262C64.3675 60.7378 64.5189 60.8004 64.6767 60.8004C64.8346 60.8004 64.986 60.7378 65.0976 60.6262L66.1804 59.5435C66.2919 59.4318 66.3546 59.2804 66.3546 59.1225C66.3546 58.9647 66.2919 58.8133 66.1804 58.7016L63.2169 55.7382C63.1128 55.633 63.0514 55.4929 63.0446 55.345C63.0378 55.1971 63.0861 55.0519 63.1801 54.9375C65.7656 51.7415 67.1581 47.7451 67.1185 43.6344C67.0384 33.7248 58.7123 25.7175 48.8064 26.0076ZM63.9072 43.7828C63.9072 51.8296 57.3837 58.353 49.3369 58.353C41.2901 58.353 34.7667 51.8296 34.7667 43.7828C34.7667 35.7359 41.2901 29.2125 49.3369 29.2125C57.3837 29.2125 63.9072 35.7354 63.9072 43.7828Z" fill="#4C4F75"/>
<rect x="157" width="100" height="100" rx="50" fill="#F5F5FA"/>
<path opacity="0.2" d="M207.412 31.8086C207.865 31.8183 208.315 31.7375 208.737 31.5708C209.158 31.4041 209.542 31.1549 209.866 30.8379C210.19 30.5209 210.448 30.1423 210.623 29.7245C210.799 29.3067 210.89 28.8579 210.89 28.4047C210.89 27.9514 210.799 27.5027 210.623 27.0849C210.448 26.667 210.19 26.2885 209.866 25.9715C209.542 25.6544 209.158 25.4052 208.737 25.2386C208.315 25.0719 207.865 24.991 207.412 25.0008C206.965 25.0064 206.523 25.1 206.112 25.2763C205.701 25.4525 205.329 25.708 205.017 26.028C204.705 26.3481 204.459 26.7265 204.293 27.1416C204.127 27.5567 204.045 28.0005 204.051 28.4475C204.061 29.3356 204.419 30.1843 205.047 30.8124C205.675 31.4404 206.524 31.7979 207.412 31.8086Z" fill="#F16641"/>
<path opacity="0.2" d="M213.978 40.3322L213.355 35.532C213.279 34.9555 213.016 34.4197 212.607 34.0065C212.198 33.5934 211.664 33.3255 211.089 33.244C210.868 33.2161 210.644 33.2248 210.427 33.2698L209.072 33.526C207.974 33.7333 206.847 33.7333 205.749 33.526L204.395 33.2698C204.177 33.2248 203.953 33.2161 203.733 33.244C203.157 33.3259 202.624 33.5938 202.215 34.0069C201.806 34.42 201.543 34.9556 201.467 35.532L200.843 40.3322C200.585 42.3178 202.14 44.0771 204.153 44.0771H210.668C212.682 44.0771 214.236 42.3178 213.978 40.3322Z" fill="#2A2D5A"/>
<path d="M219.203 39.9028C219.657 39.9126 220.107 39.8317 220.529 39.665C220.95 39.4984 221.334 39.2492 221.658 38.9321C221.982 38.6151 222.239 38.2366 222.415 37.8187C222.591 37.4009 222.681 36.9522 222.681 36.4989C222.681 36.0456 222.591 35.5969 222.415 35.1791C222.239 34.7613 221.982 34.3827 221.658 34.0657C221.334 33.7486 220.95 33.4995 220.529 33.3328C220.107 33.1661 219.657 33.0853 219.203 33.095C218.756 33.1006 218.315 33.1943 217.904 33.3705C217.493 33.5468 217.121 33.8022 216.809 34.1223C216.497 34.4423 216.251 34.8207 216.085 35.2358C215.919 35.651 215.837 36.0947 215.842 36.5417C215.853 37.4298 216.211 38.2785 216.839 38.9065C217.467 39.5345 218.315 39.892 219.203 39.9028Z" fill="#F3AE9D"/>
<path d="M225.77 48.4259L225.147 43.6258C225.071 43.0493 224.808 42.5135 224.399 42.1003C223.99 41.6871 223.456 41.4193 222.881 41.3378C222.66 41.3098 222.436 41.3185 222.219 41.3635L220.864 41.6197C219.766 41.8271 218.639 41.8271 217.541 41.6197L216.187 41.3635C215.969 41.3185 215.745 41.3098 215.525 41.3378C214.949 41.4196 214.416 41.6875 214.007 42.1007C213.598 42.5138 213.335 43.0494 213.259 43.6258L212.635 48.4259C212.377 50.4115 213.932 52.1708 215.945 52.1708H222.46C224.474 52.1708 226.028 50.412 225.77 48.4259Z" fill="#B7B8C9"/>
<path d="M195.619 39.9033C196.07 39.9088 196.517 39.8248 196.935 39.6562C197.353 39.4876 197.733 39.2377 198.054 38.921C198.374 38.6043 198.629 38.2271 198.802 37.8114C198.976 37.3956 199.065 36.9494 199.065 36.4988C199.065 36.0482 198.976 35.6021 198.802 35.1864C198.628 34.7707 198.374 34.3936 198.053 34.077C197.732 33.7604 197.352 33.5106 196.934 33.3421C196.516 33.1737 196.069 33.0898 195.618 33.0955C194.728 33.1148 193.881 33.4819 193.258 34.1183C192.636 34.7547 192.287 35.6096 192.287 36.4999C192.288 37.3902 192.636 38.245 193.259 38.8812C193.882 39.5174 194.729 39.8843 195.619 39.9033Z" fill="#F3AE9D"/>
<path d="M202.187 48.4259L201.563 43.6258C201.487 43.0493 201.225 42.5135 200.816 42.1003C200.406 41.6871 199.873 41.4193 199.297 41.3378C199.077 41.3098 198.853 41.3185 198.635 41.3635L197.281 41.6197C196.183 41.8271 195.056 41.8271 193.958 41.6197L192.603 41.3635C192.386 41.3185 192.162 41.3098 191.941 41.3378C191.366 41.4196 190.833 41.6875 190.424 42.1007C190.015 42.5138 189.752 43.0494 189.676 43.6258L189.052 48.4259C188.794 50.4115 190.349 52.1708 192.362 52.1708H198.876C200.89 52.1708 202.445 50.412 202.187 48.4259Z" fill="#B7B8C9"/>
<path d="M207.412 47.6342C207.862 47.6398 208.31 47.5558 208.728 47.3873C209.145 47.2187 209.526 46.9688 209.846 46.6521C210.167 46.3355 210.421 45.9583 210.595 45.5426C210.769 45.1268 210.858 44.6807 210.858 44.2301C210.858 43.7795 210.769 43.3334 210.595 42.9176C210.421 42.5019 210.166 42.1248 209.846 41.8081C209.525 41.4915 209.145 41.2417 208.727 41.0732C208.309 40.9047 207.862 40.8208 207.411 40.8264C206.516 40.8376 205.661 41.2012 205.032 41.8384C204.402 42.4756 204.05 43.3351 204.05 44.2306C204.05 45.1261 204.403 45.9855 205.032 46.6226C205.661 47.2597 206.516 47.6232 207.412 47.6342Z" fill="#F39F8B"/>
<path d="M213.978 56.1574L213.355 51.3572C213.279 50.7807 213.016 50.2449 212.607 49.8317C212.198 49.4185 211.664 49.1507 211.089 49.0692C210.868 49.0413 210.644 49.05 210.427 49.095L209.072 49.3512C207.974 49.5585 206.847 49.5585 205.749 49.3512L204.395 49.095C204.177 49.05 203.953 49.0413 203.733 49.0692C203.157 49.1511 202.624 49.419 202.215 49.8321C201.806 50.2452 201.543 50.7808 201.467 51.3572L200.843 56.1574C200.585 58.143 202.14 59.9023 204.153 59.9023H210.668C212.682 59.9023 214.236 58.1435 213.978 56.1574Z" fill="#ABACBF"/>
<path d="M183.828 47.6345C184.731 47.635 185.597 47.2769 186.235 46.6389C186.874 46.0009 187.233 45.1353 187.234 44.2324C187.235 43.3296 186.876 42.4635 186.238 41.8247C185.6 41.1859 184.735 40.8267 183.832 40.8262H183.828C182.936 40.8418 182.085 41.2073 181.459 41.8439C180.834 42.4806 180.483 43.3374 180.483 44.2301C180.483 45.1227 180.834 45.9796 181.459 46.6164C182.085 47.2531 182.935 47.6187 183.828 47.6345Z" fill="#F39F8B"/>
<path d="M190.163 56.1574L189.539 51.3572C189.464 50.7807 189.201 50.2449 188.792 49.8317C188.383 49.4185 187.849 49.1507 187.274 49.0692C187.053 49.0413 186.829 49.05 186.612 49.095L185.257 49.3512C184.159 49.5585 183.032 49.5585 181.934 49.3512L180.58 49.095C180.362 49.05 180.138 49.0413 179.918 49.0692C179.342 49.1511 178.809 49.419 178.4 49.8321C177.991 50.2452 177.728 50.7808 177.652 51.3572L177.028 56.1574C176.77 58.143 178.325 59.9023 180.338 59.9023H186.852C188.866 59.9023 190.421 58.1435 190.163 56.1574Z" fill="#ABACBF"/>
<path d="M230.995 47.6345C231.442 47.6348 231.885 47.547 232.298 47.3762C232.711 47.2053 233.087 46.9548 233.403 46.6389C233.719 46.323 233.97 45.9479 234.142 45.535C234.313 45.1221 234.401 44.6795 234.401 44.2324C234.402 43.7854 234.314 43.3427 234.143 42.9296C233.972 42.5164 233.722 42.141 233.406 41.8247C233.09 41.5084 232.715 41.2574 232.302 41.0861C231.889 40.9148 231.446 40.8264 230.999 40.8262H230.996C230.093 40.8261 229.227 41.1847 228.589 41.823C227.95 42.4614 227.591 43.3272 227.591 44.2301C227.591 45.1329 227.95 45.9988 228.588 46.6372C229.227 47.2757 230.092 47.6344 230.995 47.6345Z" fill="#F39F8B"/>
<path d="M237.562 56.1574L236.938 51.3572C236.862 50.7807 236.6 50.2449 236.19 49.8317C235.781 49.4185 235.248 49.1507 234.672 49.0692C234.452 49.0413 234.228 49.05 234.01 49.095L232.656 49.3512C231.558 49.5585 230.431 49.5585 229.333 49.3512L227.978 49.095C227.761 49.05 227.537 49.0413 227.316 49.0692C226.741 49.1511 226.208 49.419 225.799 49.8321C225.389 50.2452 225.127 50.7808 225.05 51.3572L224.427 56.1574C224.169 58.143 225.724 59.9023 227.737 59.9023H234.251C236.265 59.9023 237.82 58.1435 237.562 56.1574Z" fill="#ABACBF"/>
<path d="M219.204 55.3755C219.657 55.3852 220.108 55.3044 220.529 55.1377C220.951 54.971 221.335 54.7218 221.659 54.4048C221.983 54.0877 222.24 53.7092 222.416 53.2914C222.591 52.8736 222.682 52.4248 222.682 51.9716C222.682 51.5183 222.591 51.0696 222.416 50.6518C222.24 50.2339 221.983 49.8554 221.659 49.5383C221.335 49.2213 220.951 48.9721 220.529 48.8055C220.108 48.6388 219.657 48.5579 219.204 48.5677C218.757 48.5734 218.315 48.667 217.905 48.8434C217.494 49.0197 217.122 49.2752 216.81 49.5953C216.498 49.9154 216.252 50.2938 216.086 50.709C215.92 51.1241 215.838 51.5679 215.843 52.0149C215.854 52.9027 216.212 53.7511 216.84 54.379C217.468 55.0068 218.316 55.3644 219.204 55.3755Z" fill="#F28366"/>
<path d="M225.77 63.8986L225.147 59.0984C225.071 58.5219 224.808 57.9861 224.399 57.5729C223.99 57.1598 223.456 56.892 222.881 56.8105C222.66 56.7825 222.436 56.7912 222.219 56.8362L220.864 57.0924C219.766 57.2998 218.639 57.2998 217.541 57.0924L216.187 56.8362C215.969 56.7912 215.745 56.7825 215.525 56.8105C214.949 56.8923 214.416 57.1602 214.007 57.5733C213.598 57.9864 213.335 58.522 213.259 59.0984L212.635 63.8986C212.377 65.8842 213.932 67.6435 215.945 67.6435H222.46C224.474 67.6435 226.028 65.8842 225.77 63.8986Z" fill="#9293AC"/>
<path d="M195.62 55.3755C196.073 55.3852 196.524 55.3044 196.945 55.1377C197.367 54.971 197.751 54.7218 198.075 54.4048C198.399 54.0877 198.656 53.7092 198.832 53.2914C199.008 52.8736 199.098 52.4248 199.098 51.9716C199.098 51.5183 199.008 51.0696 198.832 50.6518C198.656 50.2339 198.399 49.8554 198.075 49.5383C197.751 49.2213 197.367 48.9721 196.945 48.8055C196.524 48.6388 196.073 48.5579 195.62 48.5677C195.173 48.5734 194.732 48.667 194.321 48.8434C193.91 49.0197 193.538 49.2752 193.226 49.5953C192.914 49.9154 192.668 50.2938 192.502 50.709C192.336 51.1241 192.254 51.5679 192.26 52.0149C192.271 52.9027 192.628 53.7511 193.256 54.379C193.884 55.0068 194.732 55.3644 195.62 55.3755Z" fill="#F28366"/>
<path d="M202.187 63.6588L201.563 58.8587C201.487 58.2822 201.225 57.7464 200.816 57.3332C200.406 56.92 199.873 56.6522 199.297 56.5707C199.077 56.5427 198.853 56.5514 198.635 56.5964L197.281 56.8526C196.183 57.06 195.056 57.06 193.958 56.8526L192.603 56.5964C192.386 56.5514 192.162 56.5427 191.941 56.5707C191.366 56.6525 190.833 56.9205 190.424 57.3336C190.015 57.7467 189.752 58.2823 189.676 58.8587L189.052 63.6588C188.794 65.6444 190.349 67.4037 192.362 67.4037H198.876C200.89 67.4037 202.445 65.6444 202.187 63.6588Z" fill="#9293AC"/>
<path d="M207.412 63.0934C208.304 63.0777 209.155 62.7122 209.78 62.0756C210.406 61.439 210.756 60.5822 210.756 59.6898C210.756 58.7973 210.406 57.9405 209.78 57.3039C209.155 56.6673 208.304 56.3018 207.412 56.2861C206.519 56.3018 205.669 56.6673 205.043 57.3039C204.418 57.9405 204.067 58.7973 204.067 59.6898C204.067 60.5822 204.418 61.439 205.043 62.0756C205.669 62.7122 206.519 63.0777 207.412 63.0934Z" fill="#F16641"/>
<path d="M213.978 71.6164L213.355 66.8162C213.279 66.2397 213.016 65.7039 212.607 65.2907C212.198 64.8775 211.664 64.6097 211.089 64.5282C210.868 64.5003 210.644 64.509 210.427 64.554L209.072 64.8102C207.974 65.0175 206.847 65.0175 205.749 64.8102L204.395 64.554C204.177 64.509 203.953 64.5003 203.733 64.5282C203.157 64.6101 202.624 64.878 202.215 65.2911C201.806 65.7042 201.543 66.2398 201.467 66.8162L200.843 71.6164C200.585 73.6019 202.14 75.3612 204.153 75.3612H210.668C212.682 75.3612 214.236 73.6019 213.978 71.6164Z" fill="#797B98"/>
<path d="M142.558 49.899C142.502 50.3561 142.214 50.7515 141.823 50.9949L130.29 58.2035C129.986 58.3922 129.625 58.4647 129.273 58.4077C128.92 58.3506 128.601 58.1679 128.372 57.8933C128.142 57.6221 128.038 57.2658 128.038 56.9095V54.5075C128.038 54.3111 127.96 54.1228 127.821 53.984C127.682 53.8451 127.494 53.7671 127.297 53.7671H117.61C117.183 53.7671 116.774 53.5974 116.472 53.2954C116.17 52.9934 116 52.5838 116 52.1568V47.2693C116 46.3794 116.721 45.659 117.61 45.659H127.297C127.494 45.659 127.682 45.581 127.821 45.4421C127.96 45.3032 128.038 45.1149 128.038 44.9185V42.5165C128.038 42.1611 128.142 41.8056 128.372 41.5345C128.6 41.2596 128.919 41.0765 129.272 41.0192C129.624 40.9618 129.985 41.0341 130.289 41.2225L141.877 48.466C142.366 48.7684 142.632 49.3289 142.558 49.899Z" fill="#8F91A9"/>
</svg>
