<?xml version="1.0" encoding="utf-8"?>
<!-- Generator: Adobe Illustrator 25.2.1, SVG Export Plug-In . SVG Version: 6.00 Build 0)  -->
<!DOCTYPE svg PUBLIC "-//W3C//DTD SVG 1.1//EN" "http://www.w3.org/Graphics/SVG/1.1/DTD/svg11.dtd" [
	<!ENTITY ns_extend "http://ns.adobe.com/Extensibility/1.0/">
	<!ENTITY ns_ai "http://ns.adobe.com/AdobeIllustrator/10.0/">
	<!ENTITY ns_graphs "http://ns.adobe.com/Graphs/1.0/">
	<!ENTITY ns_vars "http://ns.adobe.com/Variables/1.0/">
	<!ENTITY ns_imrep "http://ns.adobe.com/ImageReplacement/1.0/">
	<!ENTITY ns_sfw "http://ns.adobe.com/SaveForWeb/1.0/">
	<!ENTITY ns_custom "http://ns.adobe.com/GenericCustomNamespace/1.0/">
	<!ENTITY ns_adobe_xpath "http://ns.adobe.com/XPath/1.0/">
]>
<svg version="1.1" id="Layer_1" xmlns:x="&ns_extend;" xmlns:i="&ns_ai;" xmlns:graph="&ns_graphs;"
	 xmlns="http://www.w3.org/2000/svg" xmlns:xlink="http://www.w3.org/1999/xlink" x="0px" y="0px" width="288px" height="154px"
	 viewBox="0 0 288 154" enable-background="new 0 0 288 154" xml:space="preserve">
<metadata>
	<sfw  xmlns="&ns_sfw;">
		<slices></slices>
		<sliceSourceBounds  bottomLeftOrigin="true" height="154" width="254.448" x="16.776" y="0"></sliceSourceBounds>
	</sfw>
</metadata>
<path fill="#373A65" d="M112.159,77c0-22.332,9.115-43.565,25.103-59.059c1.361-1.319,1.204-3.562-0.364-4.627
	C124.596,4.955,109.705,0,93.776,0C50.514,0,15.519,35.688,16.811,79.34c1.218,41.143,35.216,74.351,76.376,74.658
	c16.25,0.121,31.287-4.774,43.732-13.307c1.559-1.069,1.713-3.306,0.355-4.621C121.278,120.575,112.159,99.337,112.159,77z"/>
<path fill="#373A65" d="M194.224,0c-16.021,0-30.843,4.878-43.136,13.304c-1.562,1.07-1.712,3.311-0.349,4.625
	c15.988,15.422,25.102,36.74,25.102,59.071c0,22.332-9.115,43.565-25.103,59.059c-1.361,1.319-1.204,3.562,0.364,4.627
	c12.303,8.36,27.193,13.314,43.122,13.314c42.486,0,77-34.42,77-77C271.224,34.514,236.803,0,194.224,0z"/>
<path fill="#4B4F73" d="M141.796,133.137c1.168,1.07,2.953,1.066,4.114-0.011c15.224-14.103,24.772-34.231,24.772-56.596
	c0-22.362-9.545-42.488-24.766-56.591c-1.164-1.078-2.954-1.081-4.12-0.005c-15.217,14.027-24.76,34.237-24.76,56.596
	C116.946,98.895,126.49,119.11,141.796,133.137z"/>
<path fill="#797B98" d="M86.18,78.313l-1.125-9.004c-0.281-2.251-2.063-3.939-4.22-4.314c-0.375-0.094-0.844,0-1.219,0.094
	l-2.532,0.469c-2.063,0.375-4.127,0.375-6.19,0l-2.532-0.469c-0.375-0.094-0.844-0.094-1.219-0.094
	c-2.157,0.281-3.939,2.063-4.22,4.314l-1.125,9.004c-0.469,3.752,2.438,7.034,6.19,7.034H80.18
	C83.741,85.347,86.649,82.065,86.18,78.313z"/>
<path fill="#797B98" d="M73.893,62.369c3.564,0,6.378-2.814,6.378-6.378s-2.814-6.378-6.378-6.378c-3.564,0-6.378,2.814-6.378,6.378
	S70.423,62.369,73.893,62.369z"/>
<path fill="#797B98" d="M225.643,78.313l-1.125-9.004c-0.281-2.251-2.063-3.939-4.22-4.314c-0.375-0.094-0.844,0-1.219,0.094
	l-2.532,0.469c-2.063,0.375-4.127,0.375-6.19,0l-2.532-0.469c-0.375-0.094-0.844-0.094-1.219-0.094
	c-2.157,0.281-3.939,2.063-4.22,4.314l-1.125,9.004c-0.469,3.752,2.438,7.034,6.19,7.034h12.192
	C223.204,85.347,226.111,82.065,225.643,78.313z"/>
<path fill="#797B98" d="M213.356,62.369c3.564,0,6.378-2.814,6.378-6.378s-2.814-6.378-6.378-6.378s-6.378,2.814-6.378,6.378
	S209.792,62.369,213.356,62.369z"/>
<path opacity="0.5" fill="#1E2453" enable-background="new    " d="M234.834,111.889h-43.143c-1.032,0-1.876-0.844-1.876-1.876
	V95.007c0-1.032,0.844-1.876,1.876-1.876h43.143c1.032,0,1.876,0.844,1.876,1.876v15.006
	C236.71,111.045,235.959,111.889,234.834,111.889z"/>
<g>
	<path opacity="0.5" fill="#1E2453" enable-background="new    " d="M90.871,111.889H57.107c-1.032,0-1.876-0.844-1.876-1.876
		V95.007c0-1.032,0.844-1.876,1.876-1.876h33.764c1.032,0,1.876,0.844,1.876,1.876v15.006
		C92.747,111.045,91.903,111.889,90.871,111.889z"/>
	<g>
		<path fill="#A5A7BA" d="M65.923,98.102h7.034v1.313h-2.72v7.503h-1.594v-7.503h-2.72C65.923,99.415,65.923,98.102,65.923,98.102z"
			/>
		<path fill="#A5A7BA" d="M77.741,105.043L77.741,105.043l2.438-7.034h1.782l-3.095,8.91h-1.97l-3.095-8.91h1.782L77.741,105.043z"
			/>
	</g>
</g>
<g>
	<path fill="#A5A7BA" d="M207.823,106.731h-10.129v-1.125h4.408v-2.438h-3.283v-5.346h7.878v5.346h-3.283v2.438h4.408
		L207.823,106.731L207.823,106.731z M205.384,102.135v-3.189h-5.158v3.189H205.384z"/>
	<path fill="#A5A7BA" d="M208.948,97.821h1.313v2.814h2.626v-2.814h1.407v7.597h-5.346L208.948,97.821L208.948,97.821z
		 M212.887,104.292v-2.626h-2.626v2.626H212.887z M217.295,101.197h1.688v1.125h-1.688v5.721h-1.407V96.977h1.407V101.197z"/>
	<path fill="#A5A7BA" d="M225.455,99.791c0,1.501-1.219,2.532-2.907,2.532s-2.907-1.032-2.907-2.532
		c0-1.501,1.219-2.532,2.907-2.532C224.236,97.352,225.455,98.384,225.455,99.791z M222.548,101.197
		c0.938,0,1.594-0.563,1.594-1.407c0-0.844-0.657-1.407-1.594-1.407s-1.594,0.563-1.594,1.407
		C220.953,100.635,221.61,101.197,222.548,101.197z M221.328,103.073h7.315v2.907h-6.002v0.938h6.284v1.032h-7.691v-3.001h6.002
		v-0.844h-6.002L221.328,103.073L221.328,103.073z M227.237,96.977h1.407v5.627h-1.407V96.977z"/>
</g>
<g>
	<circle opacity="0.15" fill="#EF552B" enable-background="new    " cx="144" cy="77" r="14.822"/>
	<circle opacity="0.25" fill="#EF552B" enable-background="new    " cx="144" cy="77" r="9.004"/>
	<circle fill="#EF552B" cx="144" cy="77" r="4"/>
</g>
</svg>
